<?xml version="1.0" encoding="utf-8"?>
<!-- Generator: Adobe Illustrator 15.1.0, SVG Export Plug-In . SVG Version: 6.00 Build 0)  -->
<!DOCTYPE svg PUBLIC "-//W3C//DTD SVG 1.0//EN" "http://www.w3.org/TR/2001/REC-SVG-20010904/DTD/svg10.dtd">
<svg version="1.0" xmlns="http://www.w3.org/2000/svg" xmlns:xlink="http://www.w3.org/1999/xlink" x="0px" y="0px" width="1024px"
	 height="319.484px" viewBox="0 0 1024 319.484" enable-background="new 0 0 1024 319.484" xml:space="preserve">
<g id="Black">
	<g>
		<path fill="#808184" d="M318.938,152.593L436.966,309.83h-96.883l-81.886-100.335V309.83H186.99V11.503h71.207v100.34
			l81.886-100.34h100.721L318.938,152.593z"/>
		<path fill="#808184" d="M738.261,309.83l-51.904-92.263h-50.359l0.387,92.263H564.79V11.503h138.869
			c7.174,0,14.475,1.346,21.91,4.036c7.436,2.693,14.611,6.283,21.525,10.765c6.924,4.487,13.328,9.553,19.23,15.187
			c5.893,5.639,10.887,11.406,14.986,17.298c5.131,7.438,9.041,16.086,11.732,25.952c2.689,9.868,4.035,19.287,4.035,28.256
			c0,14.866-3.463,28.705-10.387,41.52c-6.914,12.819-16.529,23.582-28.826,32.294l69.967,123.018H738.261z M680.204,78.012h-46.512
			v64.202h46.512c4.621,0,8.969-0.821,13.078-2.479c4.088-1.658,7.686-3.947,10.762-6.878c3.076-2.933,5.508-6.309,7.301-10.128
			s2.691-8.025,2.691-12.613c0-4.584-0.898-8.79-2.691-12.608c-1.793-3.822-4.225-7.199-7.301-10.129s-6.674-5.22-10.762-6.878
			C689.173,78.841,684.825,78.012,680.204,78.012z"/>
		<path fill="#D0D2D3" d="M60.292,303.103c-10.001-4.479-18.771-10.502-26.333-18.067c-7.561-7.556-13.458-16.399-17.687-26.526
			c-4.229-10.126-6.341-20.82-6.341-32.1c0-6.402,0.959-13.004,2.878-19.804c1.925-6.784,4.558-13.26,7.885-19.408
			c3.332-6.152,7.367-11.789,12.107-16.92c4.745-5.124,9.938-9.477,15.57-13.07c-8.708-7.941-15.377-17.233-19.992-27.874
			c-4.609-10.632-6.92-21.72-6.92-33.254c0-9.994,1.731-19.731,5.188-29.216c3.463-9.48,8.4-18.071,14.804-25.76
			c3.593-4.354,7.879-8.325,12.88-11.917c5-3.585,10.382-6.727,16.148-9.42c5.768-2.69,11.659-4.737,17.682-6.15
			c6.023-1.406,11.857-2.115,17.494-2.115h156.081V309.83H92.583C81.049,309.83,70.282,307.592,60.292,303.103z M108.535,80.51
			c-6.018,6.025-9.031,13.137-9.031,21.337c0,8.208,3.014,15.32,9.031,21.337c6.027,6.026,13.14,9.035,21.337,9.035h53.437V71.476
			h-53.437C121.674,71.476,114.562,74.492,108.535,80.51z M105.656,195.27c-5.892,5.897-8.843,12.942-8.843,21.139
			c0,8.458,2.951,15.644,8.843,21.535c5.897,5.893,13.067,8.839,21.525,8.839h56.127v-60.356h-56.127
			C118.723,186.426,111.553,189.377,105.656,195.27z"/>
		<path fill="#D0D2D3" d="M447.691,298.107c-18.188-7.815-34.082-18.452-47.669-31.912c-13.578-13.452-24.278-29.272-32.1-47.476
			c-7.811-18.193-11.721-37.544-11.721-58.052c0-20.5,3.91-39.851,11.721-58.052c7.822-18.195,18.521-34.023,32.1-47.479
			c13.588-13.456,29.482-24.087,47.669-31.906c18.209-7.816,37.678-11.728,58.442-11.728h133.404V309.83H506.133
			C485.37,309.83,465.9,305.929,447.691,298.107z M485.182,90.123c-9.354,3.976-17.499,9.419-24.413,16.339
			c-6.925,6.919-12.369,15.059-16.342,24.411c-3.974,9.36-5.955,19.288-5.955,29.795c0,10.512,1.981,20.44,5.955,29.795
			c3.973,9.359,9.417,17.489,16.342,24.413c6.914,6.92,15.059,12.369,24.413,16.337c9.355,3.979,19.408,5.96,30.171,5.96h45.75
			V84.163h-45.75C504.59,84.163,494.537,86.151,485.182,90.123z"/>
		<g>
			<path fill="#D0D2D3" d="M893.061,198.952c0,2.435-0.428,4.817-1.278,7.138s-2.069,4.276-3.65,5.856
				c-2.163,2.143-4.578,3.765-7.248,4.859c-2.658,1.095-5.975,1.638-9.944,1.638h-8.722v17.708H848.2v-54.354h23.068
				c3.458,0,6.373,0.302,8.74,0.896c2.377,0.595,4.473,1.491,6.299,2.681c2.189,1.438,3.862,3.274,5.016,5.517
				C892.481,193.126,893.061,195.812,893.061,198.952z M878.569,199.264c0-1.527-0.413-2.847-1.242-3.952s-1.788-1.872-2.882-2.311
				c-1.461-0.578-2.884-0.902-4.271-0.965c-1.389-0.063-3.239-0.094-5.549-0.094h-2.408v16.248h4.014
				c2.384,0,4.35-0.146,5.893-0.438c1.548-0.292,2.843-0.876,3.891-1.752c0.901-0.772,1.553-1.7,1.949-2.785
				C878.37,202.137,878.569,200.818,878.569,199.264z"/>
			<path fill="#D0D2D3" d="M955.33,236.151h-17.12l-14.787-19.93h-6.491v19.93h-13.943v-54.354h23.506
				c3.213,0,5.977,0.188,8.286,0.553c2.31,0.364,4.479,1.152,6.496,2.367c2.045,1.22,3.672,2.795,4.871,4.729
				c1.209,1.935,1.81,4.364,1.81,7.284c0,4.015-0.935,7.284-2.79,9.813c-1.867,2.534-4.521,4.641-7.979,6.319L955.33,236.151z
				 M933.466,198.44c0-1.36-0.281-2.528-0.839-3.504c-0.56-0.97-1.523-1.736-2.884-2.294c-0.949-0.392-2.055-0.626-3.321-0.715
				c-1.269-0.088-2.739-0.13-4.417-0.13h-5.073v14.642h4.307c2.237,0,4.114-0.114,5.621-0.334c1.507-0.219,2.773-0.714,3.795-1.491
				c0.976-0.756,1.685-1.59,2.134-2.503C933.242,201.199,933.466,199.973,933.466,198.44z"/>
			<path fill="#D0D2D3" d="M1014.314,208.994c0,8.661-2.482,15.539-7.445,20.639c-4.965,5.1-11.828,7.645-20.588,7.645
				c-8.733,0-15.585-2.545-20.55-7.645c-4.963-5.1-7.445-11.978-7.445-20.639c0-8.738,2.482-15.643,7.445-20.716
				c4.965-5.074,11.816-7.608,20.55-7.608c8.714,0,15.561,2.534,20.55,7.608C1011.822,193.351,1014.314,200.255,1014.314,208.994z
				 M995.735,222.75c1.36-1.653,2.372-3.608,3.03-5.855c0.656-2.248,0.985-4.896,0.985-7.941c0-3.259-0.375-6.033-1.132-8.322
				c-0.757-2.284-1.742-4.135-2.956-5.548c-1.242-1.46-2.67-2.514-4.287-3.171c-1.622-0.656-3.305-0.99-5.057-0.99
				c-1.778,0-3.453,0.317-5.018,0.949c-1.574,0.636-3.014,1.679-4.328,3.139c-1.214,1.366-2.211,3.243-2.971,5.642
				c-0.773,2.398-1.153,5.178-1.153,8.343c0,3.233,0.37,5.986,1.11,8.266c0.745,2.278,1.726,4.129,2.941,5.563
				c1.216,1.438,2.639,2.497,4.271,3.181c1.632,0.678,3.348,1.021,5.147,1.021c1.798,0,3.514-0.349,5.146-1.042
				C993.097,225.289,994.521,224.209,995.735,222.75z"/>
			<path fill="#EB2050" d="M894.092,268.845l-15.804,40.984h-14.893L847.7,268.845h13.876l9.51,28.209l9.392-28.209H894.092z"/>
			<path fill="#EB2050" d="M944.609,309.83H901.94v-8.979c3.259-2.357,6.527-4.866,9.803-7.52c3.269-2.648,5.893-4.938,7.863-6.863
				c2.946-2.846,5.037-5.328,6.277-7.445c1.242-2.117,1.862-4.208,1.862-6.277c0-2.482-0.798-4.396-2.394-5.746
				c-1.591-1.351-3.886-2.023-6.878-2.023c-2.237,0-4.595,0.459-7.065,1.387c-2.466,0.923-4.761,2.101-6.878,3.535h-1.168v-12.076
				c1.726-0.757,4.275-1.513,7.649-2.264c3.369-0.756,6.741-1.137,10.127-1.137c6.813,0,12.009,1.429,15.585,4.292
				c3.576,2.862,5.366,6.904,5.366,12.134c0,3.432-0.855,6.695-2.576,9.781c-1.711,3.093-4.333,6.279-7.863,9.564
				c-2.216,2.043-4.443,3.925-6.681,5.641c-2.235,1.716-3.831,2.915-4.78,3.598h24.419V309.83z"/>
		</g>
	</g>
</g>
</svg>
