<?xml version="1.0" encoding="utf-8"?>
<!-- Generator: Adobe Illustrator 15.1.0, SVG Export Plug-In . SVG Version: 6.00 Build 0)  -->
<!DOCTYPE svg PUBLIC "-//W3C//DTD SVG 1.0//EN" "http://www.w3.org/TR/2001/REC-SVG-20010904/DTD/svg10.dtd">
<svg version="1.0" xmlns="http://www.w3.org/2000/svg" xmlns:xlink="http://www.w3.org/1999/xlink" x="0px" y="0px" width="1024px"
	 height="221px" viewBox="0 0 1024 221" enable-background="new 0 0 1024 221" xml:space="preserve">
<g id="Black">
	<g>
		<g>
			<g>
				<path fill="#D0D2D3" d="M895.755,185.131c0,1.183-0.205,2.349-0.627,3.476c-0.411,1.135-1.005,2.081-1.772,2.855
					c-1.056,1.042-2.231,1.832-3.527,2.363c-1.292,0.535-2.911,0.798-4.85,0.798h-4.243v8.626h-6.828v-26.47h11.235
					c1.687,0,3.102,0.146,4.256,0.438c1.161,0.291,2.181,0.723,3.065,1.306c1.065,0.699,1.882,1.59,2.445,2.685
					C895.47,182.297,895.755,183.607,895.755,185.131z M888.699,185.286c0-0.75-0.199-1.387-0.604-1.926
					c-0.404-0.536-0.87-0.913-1.405-1.124c-0.713-0.282-1.405-0.441-2.083-0.471c-0.672-0.029-1.575-0.043-2.7-0.043h-1.172v7.909
					h1.955c1.157,0,2.118-0.072,2.868-0.215c0.757-0.143,1.386-0.426,1.893-0.852c0.444-0.376,0.765-0.828,0.953-1.354
					C888.605,186.68,888.699,186.043,888.699,185.286z"/>
				<path fill="#D0D2D3" d="M926.076,203.249h-8.329l-7.207-9.707h-3.159v9.707h-6.792v-26.47h11.446
					c1.569,0,2.913,0.089,4.035,0.27c1.128,0.174,2.183,0.561,3.166,1.15c1.002,0.597,1.787,1.364,2.369,2.304
					c0.587,0.944,0.886,2.126,0.886,3.549c0,1.951-0.455,3.546-1.358,4.779c-0.914,1.232-2.206,2.257-3.884,3.074L926.076,203.249z
					 M915.433,184.89c0-0.67-0.138-1.236-0.407-1.712c-0.273-0.473-0.743-0.847-1.401-1.117c-0.471-0.194-1.006-0.305-1.62-0.35
					c-0.619-0.039-1.34-0.062-2.151-0.062h-2.472v7.13h2.097c1.088,0,2.001-0.054,2.741-0.163c0.735-0.105,1.351-0.35,1.841-0.726
					c0.48-0.37,0.827-0.776,1.046-1.22C915.326,186.228,915.433,185.632,915.433,184.89z"/>
				<path fill="#D0D2D3" d="M954.8,190.02c0,4.223-1.201,7.573-3.622,10.057c-2.417,2.481-5.759,3.723-10.028,3.723
					c-4.248,0-7.585-1.241-10.003-3.723c-2.417-2.483-3.626-5.834-3.626-10.057c0-4.251,1.209-7.613,3.626-10.085
					c2.418-2.468,5.755-3.705,10.003-3.705c4.252,0,7.582,1.237,10.011,3.705C953.587,182.406,954.8,185.769,954.8,190.02z
					 M945.755,196.723c0.662-0.809,1.157-1.758,1.478-2.854c0.324-1.093,0.477-2.384,0.477-3.863c0-1.591-0.178-2.938-0.549-4.05
					c-0.372-1.115-0.846-2.018-1.442-2.708c-0.602-0.71-1.3-1.226-2.079-1.541c-0.797-0.322-1.615-0.484-2.464-0.484
					c-0.869,0-1.688,0.155-2.446,0.464c-0.764,0.311-1.47,0.818-2.11,1.527c-0.59,0.668-1.074,1.58-1.449,2.75
					c-0.375,1.164-0.558,2.518-0.558,4.057c0,1.582,0.176,2.92,0.539,4.028c0.364,1.107,0.841,2.009,1.435,2.708
					c0.59,0.706,1.284,1.22,2.081,1.55c0.791,0.333,1.632,0.5,2.509,0.5c0.874,0,1.708-0.173,2.509-0.506
					C944.473,197.956,945.165,197.437,945.755,196.723z"/>
			</g>
			<g>
				<path fill="#EB2050" d="M981.765,183.542l-7.69,19.966h-7.255l-7.652-19.966h6.765l4.633,13.742l4.572-13.742H981.765z"/>
				<path fill="#EB2050" d="M1006.365,203.508h-20.782v-4.371c1.591-1.155,3.183-2.376,4.777-3.666
					c1.594-1.288,2.868-2.405,3.828-3.342c1.441-1.385,2.458-2.595,3.062-3.626c0.604-1.03,0.906-2.052,0.906-3.059
					c0-1.207-0.393-2.143-1.172-2.798c-0.768-0.658-1.882-0.987-3.346-0.987c-1.088,0-2.238,0.229-3.442,0.675
					c-1.198,0.451-2.315,1.026-3.35,1.727h-0.564v-5.887c0.834-0.366,2.079-0.729,3.725-1.1c1.638-0.368,3.282-0.55,4.924-0.55
					c3.328,0,5.858,0.694,7.598,2.085c1.74,1.393,2.613,3.361,2.613,5.91c0,1.673-0.418,3.262-1.256,4.767
					c-0.837,1.502-2.11,3.058-3.829,4.656c-1.077,0.993-2.17,1.911-3.254,2.744c-1.089,0.838-1.872,1.42-2.329,1.747h11.892V203.508
					z"/>
			</g>
		</g>
		<path fill="#808184" d="M410.106,165.064h-28.421l-7.433-21.57h-39.488l-7.434,21.57h-27.734l39.419-106.708h31.677
			L410.106,165.064z M367.635,123.929l-13.126-38.228l-13.13,38.228H367.635z"/>
		<path fill="#808184" d="M455.33,167.144c-7.935,0-15.256-1.173-21.967-3.513c-6.715-2.338-12.483-5.827-17.307-10.462
			c-4.828-4.633-8.564-10.414-11.219-17.342c-2.652-6.927-3.974-14.93-3.974-24.008c0-8.458,1.264-16.125,3.797-23.005
			c2.531-6.881,6.21-12.781,11.036-17.703c4.633-4.729,10.378-8.382,17.235-10.964c6.855-2.581,14.346-3.868,22.468-3.868
			c4.492,0,8.537,0.249,12.147,0.749c3.607,0.501,6.937,1.16,9.999,1.971c3.197,0.909,6.101,1.926,8.707,3.046
			c2.603,1.124,4.881,2.164,6.847,3.12v25.872h-3.156c-1.339-1.141-3.021-2.497-5.052-4.064c-2.032-1.571-4.335-3.115-6.917-4.636
			c-2.628-1.52-5.471-2.805-8.525-3.849c-3.062-1.046-6.337-1.571-9.821-1.571c-3.869,0-7.55,0.609-11.036,1.824
			c-3.493,1.216-6.713,3.231-9.677,6.041c-2.819,2.72-5.101,6.32-6.843,10.804c-1.747,4.479-2.615,9.916-2.615,16.304
			c0,6.675,0.942,12.251,2.83,16.736c1.886,4.481,4.265,8.012,7.13,10.585c2.913,2.621,6.162,4.495,9.745,5.613
			c3.583,1.12,7.121,1.681,10.609,1.681c3.341,0,6.65-0.5,9.926-1.496c3.269-0.999,6.293-2.354,9.067-4.066
			c2.337-1.378,4.518-2.851,6.524-4.419c2.005-1.57,3.654-2.924,4.942-4.065h2.869v25.512c-2.683,1.194-5.235,2.319-7.669,3.37
			c-2.439,1.05-4.998,1.96-7.669,2.722c-3.49,1.003-6.763,1.768-9.821,2.294C464.881,166.882,460.678,167.144,455.33,167.144z"/>
		<path fill="#D0D2D3" d="M550.509,107.652l43.095,57.412h-35.374l-29.903-36.637v36.637h-29.892V56.131h29.892v36.638
			l29.903-36.638h36.779L550.509,107.652z"/>
		<path fill="#D0D2D3" d="M603.431,160.783c-6.646-2.855-12.44-6.737-17.402-11.651c-4.961-4.914-8.867-10.688-11.722-17.336
			c-2.856-6.645-4.283-13.71-4.283-21.198c0-7.488,1.427-14.548,4.283-21.194c2.854-6.645,6.761-12.424,11.722-17.336
			c4.962-4.914,10.757-8.797,17.402-11.652c6.644-2.854,13.756-4.284,21.335-4.284h48.715v108.933h-48.715
			C617.187,165.064,610.074,163.643,603.431,160.783z M617.126,84.84c-3.419,1.452-6.393,3.439-8.918,5.966
			c-2.526,2.527-4.518,5.499-5.963,8.914c-1.452,3.418-2.181,7.045-2.181,10.878c0,3.839,0.729,7.463,2.181,10.879
			c1.445,3.419,3.437,6.39,5.963,8.916c2.525,2.524,5.499,4.516,8.918,5.964c3.414,1.454,7.079,2.175,11.015,2.175h16.7V82.662
			h-16.7C624.205,82.662,620.54,83.39,617.126,84.84z"/>
		<path fill="#808184" d="M786.305,111.746c0,17.01-4.875,30.52-14.621,40.527c-9.745,10.011-23.225,15.014-40.428,15.014
			c-17.145,0-30.592-5.003-40.342-15.014c-9.745-10.007-14.619-23.517-14.619-40.527c0-17.149,4.874-30.709,14.619-40.669
			c9.75-9.962,23.197-14.945,40.342-14.945c17.108,0,30.563,4.983,40.354,14.945C781.404,81.037,786.305,94.596,786.305,111.746z
			 M749.824,138.762c2.672-3.247,4.658-7.08,5.952-11.499c1.287-4.419,1.933-9.615,1.933-15.589c0-6.402-0.743-11.849-2.225-16.339
			c-1.482-4.489-3.411-8.122-5.803-10.893c-2.438-2.868-5.24-4.946-8.416-6.236c-3.185-1.291-6.497-1.937-9.93-1.937
			c-3.486,0-6.771,0.624-9.854,1.865c-3.084,1.244-5.915,3.298-8.496,6.165c-2.388,2.677-4.332,6.365-5.839,11.073
			c-1.507,4.704-2.261,10.163-2.261,16.374c0,6.354,0.729,11.765,2.185,16.235c1.464,4.464,3.386,8.11,5.771,10.927
			c2.391,2.821,5.186,4.9,8.386,6.233c3.199,1.338,6.574,2.008,10.108,2.008c3.538,0,6.901-0.68,10.108-2.042
			C744.637,143.745,747.433,141.631,749.824,138.762z"/>
		<path fill="#808184" d="M900.063,111.746c0,17.01-4.869,30.52-14.618,40.527c-9.744,10.011-23.221,15.014-40.419,15.014
			c-17.152,0-30.605-5.003-40.347-15.014c-9.748-10.007-14.625-23.517-14.625-40.527c0-17.149,4.877-30.709,14.625-40.669
			c9.741-9.962,23.194-14.945,40.347-14.945c17.104,0,30.558,4.983,40.347,14.945C895.169,81.037,900.063,94.596,900.063,111.746z
			 M863.587,138.762c2.679-3.247,4.66-7.08,5.947-11.499c1.294-4.419,1.937-9.615,1.937-15.589c0-6.402-0.742-11.849-2.22-16.339
			c-1.478-4.489-3.415-8.122-5.806-10.893c-2.439-2.868-5.242-4.946-8.423-6.236c-3.175-1.291-6.483-1.937-9.924-1.937
			c-3.486,0-6.773,0.624-9.853,1.865c-3.083,1.244-5.912,3.298-8.493,6.165c-2.391,2.677-4.339,6.365-5.839,11.073
			c-1.507,4.704-2.257,10.163-2.257,16.374c0,6.354,0.725,11.765,2.185,16.235c1.452,4.464,3.378,8.11,5.766,10.927
			c2.392,2.821,5.19,4.9,8.383,6.233c3.204,1.338,6.571,2.008,10.108,2.008c3.538,0,6.909-0.68,10.102-2.042
			C858.403,143.745,861.199,141.631,863.587,138.762z"/>
		<path fill="#D0D2D3" d="M971.023,165.064l-18.949-33.69h-18.391l0.139,33.69H903.78V56.131h54.612
			c2.617,0,5.278,0.493,7.997,1.476c2.712,0.983,5.336,2.292,7.858,3.932c2.534,1.636,4.867,3.486,7.019,5.545
			c2.159,2.057,3.979,4.166,5.479,6.314c1.866,2.717,3.297,5.876,4.284,9.477c0.982,3.603,1.467,7.042,1.467,10.316
			c0,5.429-1.256,10.483-3.781,15.162c-2.534,4.683-6.043,8.613-10.531,11.792l25.55,44.919H971.023z M949.823,80.417h-16.984
			v23.442h16.984c1.69,0,3.276-0.297,4.775-0.904c1.497-0.605,2.804-1.441,3.932-2.51c1.121-1.071,2.011-2.302,2.669-3.697
			c0.647-1.398,0.982-2.932,0.982-4.607c0-1.674-0.335-3.21-0.982-4.604c-0.658-1.395-1.548-2.63-2.669-3.698
			c-1.128-1.073-2.435-1.909-3.932-2.514C953.1,80.72,951.514,80.417,949.823,80.417z"/>
		<path fill="#D0D2D3" d="M221.939,162.612c-3.645-1.635-6.842-3.83-9.602-6.592c-2.755-2.749-4.903-5.981-6.448-9.668
			c-1.541-3.693-2.31-7.595-2.31-11.71c0-2.332,0.35-4.743,1.049-7.218c0.702-2.474,1.662-4.84,2.873-7.076
			c1.215-2.246,2.685-4.299,4.418-6.172c1.729-1.864,3.623-3.454,5.676-4.765c-3.174-2.899-5.606-6.289-7.293-10.166
			c-1.677-3.874-2.522-7.918-2.522-12.122c0-3.648,0.635-7.2,1.894-10.657c1.265-3.457,3.067-6.594,5.401-9.396
			c1.306-1.585,2.87-3.031,4.693-4.349c1.825-1.303,3.79-2.444,5.889-3.432c2.104-0.977,4.252-1.726,6.45-2.242
			c2.195-0.513,4.319-0.768,6.38-0.768h56.915v108.786h-61.685C229.514,165.064,225.586,164.25,221.939,162.612z M239.533,81.441
			c-2.194,2.195-3.295,4.79-3.295,7.781s1.102,5.587,3.295,7.781c2.201,2.193,4.794,3.291,7.785,3.291h19.485V78.145h-19.485
			C244.327,78.145,241.734,79.246,239.533,81.441z M238.486,123.286c-2.149,2.15-3.225,4.726-3.225,7.715
			c0,3.079,1.075,5.701,3.225,7.848c2.147,2.151,4.765,3.221,7.849,3.221h20.467v-22.008h-20.467
			C243.251,120.063,240.634,121.141,238.486,123.286z"/>
		<path fill-rule="evenodd" clip-rule="evenodd" fill="#FF004A" d="M17.171,116.478c17.015,0,19.341,10.054,19.341,17.318
			c0,6.321-0.932,12.64-1.862,18.956c-1.015,6.323-1.948,12.871-1.948,19.199c0,23.644,14.413,32.104,33.706,32.104h53.224
			c19.062,0,33.706-8.461,33.706-32.104c0-6.328-0.93-12.876-1.859-19.199c-1.019-6.315-1.947-12.635-1.947-18.956
			c0-7.264,2.324-17.318,18.826-17.318l0.541-11.513c-17.042,0-19.367-8.998-19.367-17.068c0-6.461,0.928-12.918,1.858-19.378
			c1.018-6.457,1.948-12.681,1.948-19.139c0-21.284-14.179-30.442-33.937-30.442H66.408c-19.758,0-33.706,9.158-33.706,30.442
			c0,6.458,0.933,12.682,1.861,19.139c1.017,6.46,1.949,12.917,1.949,19.378c0,8.07-2.326,17.068-18.828,17.068L17.171,116.478z
			 M67.108,191.139h-0.441l51.922-10.378V43.004L78.286,31.852h40.652c13.479,0.229,18.36,7.376,18.36,19.831
			c0,5.307-0.93,10.847-1.625,16.376c-0.634,5.768-1.542,11.304-1.542,17.531c0,14.758,6.345,22.082,16.328,24.786v0.458
			c-9.983,2.48-16.328,10.329-16.328,25.303c0,6.32,0.907,12.173,1.811,17.791c0.426,5.852,1.356,11.224,1.356,16.846
			c0,13.102-5.577,20.125-18.593,20.366H67.108z M104.64,118.461c0-2.354,1.909-4.258,4.265-4.258s4.259,1.904,4.259,4.258
			c0,2.355-1.903,4.259-4.259,4.259S104.64,120.817,104.64,118.461z"/>
	</g>
</g>
</svg>
