<?xml version="1.0" encoding="utf-8"?>
<!-- Generator: Adobe Illustrator 15.1.0, SVG Export Plug-In . SVG Version: 6.00 Build 0)  -->
<!DOCTYPE svg PUBLIC "-//W3C//DTD SVG 1.0//EN" "http://www.w3.org/TR/2001/REC-SVG-20010904/DTD/svg10.dtd">
<svg version="1.0" id="Layer_1" xmlns="http://www.w3.org/2000/svg" xmlns:xlink="http://www.w3.org/1999/xlink" x="0px" y="0px"
	 width="600px" height="600px" viewBox="0 0 600 600" enable-background="new 0 0 600 600" xml:space="preserve">
<g>
	<path fill="none" stroke="#FFFFFF" stroke-miterlimit="10" d="M93.04,121.548c-1.262,0-2.289-1.025-2.289-2.288v-74
		c0-1.261,1.027-2.288,2.289-2.288h120.917c1.262,0,2.289,1.027,2.289,2.288v74c0,1.263-1.026,2.288-2.289,2.288H93.04z"/>
	<path fill="none" stroke="#FFFFFF" stroke-miterlimit="10" d="M213.956,43.735c0.841,0,1.526,0.685,1.526,1.525v74
		c0,0.841-0.685,1.525-1.526,1.525H93.04c-0.841,0-1.525-0.685-1.525-1.525v-74c0-0.841,0.684-1.525,1.525-1.525H213.956
		 M213.956,42.208H93.04c-1.685,0-3.051,1.366-3.051,3.052v74c0,1.686,1.367,3.052,3.051,3.052h120.917
		c1.686,0,3.051-1.366,3.051-3.052v-74C217.007,43.575,215.642,42.208,213.956,42.208L213.956,42.208z"/>
</g>
<g>
	<rect x="143.39" y="122.312" fill="#FFFFFF" width="20.216" height="12.969"/>
</g>
<g>
	<rect x="118.978" y="135.281" fill="#FFFFFF" width="68.659" height="3.433"/>
</g>
<path fill="#FF004A" d="M238.997,304.004c13.684,0,15.551,8.092,15.551,13.928c0,5.072-0.746,10.154-1.496,15.236
	c-0.816,5.08-1.563,10.352-1.563,15.428c0,19.016,11.588,25.813,27.1,25.813h42.797c15.324,0,27.104-6.797,27.104-25.813
	c0-5.076-0.746-10.348-1.498-15.428c-0.818-5.082-1.564-10.164-1.564-15.236c0-5.836,1.869-13.928,15.139-13.928l0.438-9.256
	c-13.707,0-15.574-7.229-15.574-13.719c0-5.193,0.746-10.381,1.496-15.574c0.818-5.189,1.564-10.197,1.564-15.387
	c0-17.115-11.4-24.477-27.287-24.477h-42.609c-15.887,0-27.1,7.357-27.1,24.477c0,5.189,0.746,10.193,1.496,15.387
	c0.816,5.193,1.563,10.381,1.563,15.574c0,6.488-1.865,13.719-15.141,13.719L238.997,304.004z M279.146,364.025h-0.35l41.748-8.344
	V244.938l-32.408-8.963h32.689c10.84,0.188,14.764,5.934,14.764,15.941c0,4.27-0.746,8.715-1.309,13.164
	c-0.512,4.635-1.238,9.086-1.238,14.092c0,11.869,5.1,17.758,13.129,19.934v0.359c-8.029,1.998-13.129,8.301-13.129,20.346
	c0,5.074,0.73,9.779,1.457,14.295c0.344,4.705,1.09,9.031,1.09,13.549c0,10.539-4.484,16.182-14.953,16.371H279.146L279.146,364.025
	z M309.327,305.6c0-1.895,1.537-3.428,3.428-3.428c1.896,0,3.428,1.533,3.428,3.428c0,1.889-1.529,3.422-3.428,3.422
	C310.864,309.021,309.327,307.488,309.327,305.6z"/>
<g>
	<path fill="none" stroke="#FFFFFF" stroke-miterlimit="10" d="M423.521,159.884c-1.262,0-2.289-1.025-2.289-2.288v-74
		c0-1.261,1.027-2.288,2.289-2.288h120.916c1.264,0,2.289,1.027,2.289,2.288v74c0,1.263-1.025,2.288-2.289,2.288H423.521z"/>
	<path fill="none" stroke="#FFFFFF" stroke-miterlimit="10" d="M544.438,82.07c0.842,0,1.527,0.685,1.527,1.525v74
		c0,0.841-0.686,1.525-1.527,1.525H423.521c-0.842,0-1.525-0.685-1.525-1.525v-74c0-0.841,0.684-1.525,1.525-1.525H544.438
		 M544.438,80.544H423.521c-1.685,0-3.051,1.366-3.051,3.052v74c0,1.686,1.366,3.052,3.051,3.052h120.916
		c1.686,0,3.053-1.366,3.053-3.052v-74C547.49,81.91,546.123,80.544,544.438,80.544L544.438,80.544z"/>
</g>
<g>
	<rect x="473.872" y="160.647" fill="#FFFFFF" width="20.216" height="12.969"/>
</g>
<g>
	<rect x="449.46" y="173.616" fill="#FFFFFF" width="68.659" height="3.433"/>
</g>
<g>
	<path fill="none" stroke="#FFFFFF" stroke-miterlimit="10" d="M58.52,470.267c-1.262,0-2.289-1.025-2.289-2.288v-74
		c0-1.261,1.027-2.288,2.289-2.288h120.917c1.263,0,2.288,1.027,2.288,2.288v74c0,1.263-1.025,2.288-2.288,2.288H58.52z"/>
	<path fill="none" stroke="#FFFFFF" stroke-miterlimit="10" d="M179.436,392.453c0.841,0,1.526,0.685,1.526,1.525v74
		c0,0.841-0.686,1.525-1.526,1.525H58.52c-0.841,0-1.525-0.685-1.525-1.525v-74c0-0.841,0.684-1.525,1.525-1.525H179.436
		 M179.436,390.927H58.52c-1.685,0-3.051,1.366-3.051,3.052v74c0,1.686,1.367,3.052,3.051,3.052h120.917
		c1.686,0,3.052-1.366,3.052-3.052v-74C182.488,392.293,181.122,390.927,179.436,390.927L179.436,390.927z"/>
</g>
<g>
	<rect x="108.87" y="471.03" fill="#FFFFFF" width="20.215" height="12.969"/>
</g>
<g>
	<rect x="84.458" y="483.999" fill="#FFFFFF" width="68.659" height="3.433"/>
</g>
<g>
	<path fill="none" stroke="#FFFFFF" stroke-miterlimit="10" d="M417.414,563.339c-1.262,0-2.288-1.025-2.288-2.288v-74
		c0-1.261,1.026-2.288,2.288-2.288h120.917c1.263,0,2.288,1.027,2.288,2.288v74c0,1.263-1.025,2.288-2.288,2.288H417.414z"/>
	<path fill="none" stroke="#FFFFFF" stroke-miterlimit="10" d="M538.331,485.525c0.841,0,1.526,0.685,1.526,1.525v74
		c0,0.841-0.686,1.525-1.526,1.525H417.414c-0.841,0-1.525-0.685-1.525-1.525v-74c0-0.841,0.685-1.525,1.525-1.525H538.331
		 M538.331,483.999H417.414c-1.684,0-3.051,1.366-3.051,3.052v74c0,1.686,1.367,3.052,3.051,3.052h120.917
		c1.686,0,3.052-1.366,3.052-3.052v-74C541.383,485.365,540.017,483.999,538.331,483.999L538.331,483.999z"/>
</g>
<g>
	<rect x="467.766" y="564.103" fill="#FFFFFF" width="20.215" height="12.969"/>
</g>
<g>
	<rect x="443.354" y="577.071" fill="#FFFFFF" width="68.658" height="3.433"/>
</g>
<g>
	<g>
		<path fill="none" stroke="#FFFFFF" stroke-width="3" stroke-miterlimit="10" stroke-dasharray="12,3.99,0.01,0,0,0" d="
			M378.357,253.042c11.578,5.291,34.862,12.496,59.07,0.147c24.068-12.278,31.12-34.739,33.185-47.015"/>
		<g>
			<polygon fill="#FFFFFF" points="377.266,259.002 370.775,248.95 382.727,248.355 			"/>
		</g>
		<g>
			<polygon fill="#FFFFFF" points="476.238,208.562 471.436,197.603 464.345,207.241 			"/>
		</g>
	</g>
</g>
<g>
	<g>
		<path fill="none" stroke="#FFFFFF" stroke-width="3" stroke-miterlimit="10" stroke-dasharray="12,3.99,0.01,0,0,0" d="
			M208.597,306.19c-12.105-3.938-36.058-8.449-58.704,6.573c-22.516,14.937-26.966,38.054-27.622,50.485"/>
		<g>
			<polygon fill="#FFFFFF" points="209.003,300.146 216.595,309.394 204.789,311.345 			"/>
		</g>
		<g>
			<polygon fill="#FFFFFF" points="116.412,361.518 122.43,371.859 128.378,361.477 			"/>
		</g>
	</g>
</g>
<g>
	<g>
		<path fill="none" stroke="#FFFFFF" stroke-width="3" stroke-miterlimit="10" stroke-dasharray="12,3.99,0.01,0,0,0" d="
			M152.883,165.262c-1.932,12.583-2.514,36.95,15.969,56.872c18.377,19.808,41.91,20.465,54.284,19.104"/>
		<g>
			<polygon fill="#FFFFFF" points="146.852,165.838 154.752,156.852 158.585,168.188 			"/>
		</g>
		<g>
			<polygon fill="#FFFFFF" points="222.375,247.301 231.608,239.691 220.4,235.499 			"/>
		</g>
	</g>
</g>
<g>
	<g>
		<path fill="none" stroke="#FFFFFF" stroke-width="3" stroke-miterlimit="10" stroke-dasharray="12,3.99,0.01,0,0,0" d="
			M463.652,455.876c1.175-15.733,0.922-49.781-19.434-73.127c-23.933-27.448-53.563-31.148-67.914-31.13"/>
		<g>
			<polygon fill="#FFFFFF" points="469.666,454.728 462.66,464.428 457.763,453.51 			"/>
		</g>
		<g>
			<polygon fill="#FFFFFF" points="377.755,345.682 367.712,352.186 378.366,357.632 			"/>
		</g>
	</g>
</g>
<g>
	<g>
		<path fill="#FFFFFF" d="M82.548,431.692l11.137-5.736v1.656l-9.385,4.704v0.049l9.385,4.703v1.656l-11.137-5.736V431.692z"/>
		<path fill="#FFFFFF" d="M97.02,421.684h2.112v7.272h0.048c0.336-0.6,0.864-1.151,1.512-1.512c0.624-0.36,1.368-0.576,2.16-0.576
			c1.561,0,4.057,0.96,4.057,4.944v6.912h-2.112v-6.672c0-1.873-0.696-3.433-2.688-3.433c-1.368,0-2.424,0.96-2.833,2.089
			c-0.12,0.312-0.144,0.623-0.144,1.008v7.008H97.02V421.684z"/>
		<path fill="#FFFFFF" d="M112.789,424.324v2.783h3.024v1.609h-3.024v6.264c0,1.44,0.408,2.256,1.584,2.256
			c0.576,0,0.912-0.047,1.224-0.144l0.096,1.608c-0.408,0.145-1.056,0.288-1.872,0.288c-0.984,0-1.776-0.336-2.28-0.888
			c-0.576-0.648-0.816-1.681-0.816-3.049v-6.336h-1.8v-1.609h1.8v-2.16L112.789,424.324z"/>
		<path fill="#FFFFFF" d="M118.188,430.252c0-1.224-0.048-2.184-0.096-3.145h1.848l0.096,1.896h0.072
			c0.648-1.104,1.728-2.136,3.672-2.136c1.56,0,2.76,0.96,3.264,2.328h0.048c0.36-0.672,0.84-1.152,1.32-1.513
			c0.696-0.527,1.44-0.815,2.544-0.815c1.56,0,3.84,1.008,3.84,5.04v6.816h-2.064v-6.553c0-2.256-0.84-3.576-2.52-3.576
			c-1.224,0-2.136,0.889-2.521,1.896c-0.096,0.313-0.168,0.672-0.168,1.057v7.176h-2.064v-6.96c0-1.849-0.816-3.169-2.424-3.169
			c-1.296,0-2.28,1.057-2.616,2.113c-0.12,0.287-0.168,0.672-0.168,1.031v6.984h-2.064V430.252z"/>
		<path fill="#FFFFFF" d="M138.204,421.684h2.112v17.041h-2.112V421.684z"/>
		<path fill="#FFFFFF" d="M154.837,433.013l-11.137,5.712v-1.656l9.457-4.703v-0.049l-9.457-4.704v-1.656l11.137,5.688V433.013z"/>
	</g>
	<g>
		<path fill="#FFFFFF" d="M448.045,121.764l11.137-5.736v1.656l-9.385,4.704v0.048l9.385,4.704v1.656l-11.137-5.736V121.764z"/>
		<path fill="#FFFFFF" d="M462.516,111.755h2.113v7.272h0.047c0.337-0.6,0.865-1.152,1.513-1.512c0.624-0.36,1.368-0.576,2.16-0.576
			c1.561,0,4.057,0.96,4.057,4.944v6.913h-2.112v-6.672c0-1.873-0.695-3.433-2.688-3.433c-1.369,0-2.425,0.96-2.833,2.088
			c-0.12,0.312-0.144,0.624-0.144,1.008v7.009h-2.113V111.755z"/>
		<path fill="#FFFFFF" d="M478.285,114.396v2.784h3.023v1.608h-3.023v6.265c0,1.44,0.408,2.256,1.584,2.256
			c0.576,0,0.912-0.048,1.224-0.144l0.097,1.608c-0.408,0.144-1.057,0.288-1.873,0.288c-0.984,0-1.775-0.336-2.279-0.888
			c-0.576-0.648-0.816-1.68-0.816-3.048v-6.336h-1.801v-1.608h1.801v-2.16L478.285,114.396z"/>
		<path fill="#FFFFFF" d="M483.684,120.324c0-1.224-0.047-2.184-0.096-3.145h1.849l0.096,1.896h0.072
			c0.647-1.104,1.728-2.136,3.673-2.136c1.56,0,2.76,0.96,3.264,2.328h0.048c0.36-0.672,0.841-1.152,1.32-1.512
			c0.696-0.528,1.44-0.816,2.544-0.816c1.561,0,3.841,1.008,3.841,5.041v6.816h-2.064v-6.553c0-2.256-0.84-3.576-2.521-3.576
			c-1.224,0-2.136,0.888-2.52,1.896c-0.096,0.312-0.168,0.672-0.168,1.056v7.177h-2.064v-6.96c0-1.848-0.816-3.168-2.424-3.168
			c-1.297,0-2.281,1.056-2.617,2.112c-0.119,0.288-0.168,0.672-0.168,1.032v6.984h-2.064V120.324z"/>
		<path fill="#FFFFFF" d="M503.699,111.755h2.113v17.042h-2.113V111.755z"/>
		<path fill="#FFFFFF" d="M520.333,123.084l-11.138,5.712v-1.656l9.457-4.704v-0.048l-9.457-4.704v-1.656l11.138,5.688V123.084z"/>
	</g>
	<g>
		<path fill="#FFFFFF" d="M436.975,519.934h1.584v8.12c0,3.223-1.584,4.214-3.673,4.214c-0.595,0-1.296-0.127-1.675-0.289
			l0.217-1.278c0.324,0.126,0.791,0.234,1.332,0.234c1.404,0,2.215-0.63,2.215-3.007V519.934z"/>
		<path fill="#FFFFFF" d="M447.235,529.98c0,0.756,0.036,1.494,0.126,2.088h-1.422l-0.127-1.098h-0.053
			c-0.486,0.684-1.424,1.297-2.666,1.297c-1.764,0-2.664-1.243-2.664-2.504c0-2.105,1.873-3.258,5.239-3.24v-0.18
			c0-0.703-0.198-2.018-1.98-1.999c-0.828,0-1.675,0.233-2.286,0.647l-0.361-1.062c0.721-0.45,1.783-0.757,2.881-0.757
			c2.666,0,3.313,1.818,3.313,3.547V529.98z M445.705,527.621c-1.729-0.035-3.691,0.271-3.691,1.963
			c0,1.045,0.685,1.513,1.477,1.513c1.152,0,1.891-0.72,2.143-1.458c0.055-0.181,0.072-0.361,0.072-0.505V527.621z"/>
		<path fill="#FFFFFF" d="M450.258,523.354l1.711,4.88c0.287,0.81,0.521,1.529,0.701,2.25h0.055c0.197-0.721,0.449-1.44,0.738-2.25
			l1.692-4.88h1.656l-3.421,8.714h-1.513l-3.313-8.714H450.258z"/>
		<path fill="#FFFFFF" d="M464.354,529.98c0,0.756,0.035,1.494,0.125,2.088h-1.422l-0.126-1.098h-0.054
			c-0.486,0.684-1.422,1.297-2.665,1.297c-1.765,0-2.665-1.243-2.665-2.504c0-2.105,1.873-3.258,5.24-3.24v-0.18
			c0-0.703-0.198-2.018-1.98-1.999c-0.828,0-1.675,0.233-2.287,0.647l-0.36-1.062c0.72-0.45,1.782-0.757,2.881-0.757
			c2.665,0,3.313,1.818,3.313,3.547V529.98z M462.822,527.621c-1.729-0.035-3.69,0.271-3.69,1.963c0,1.045,0.685,1.513,1.476,1.513
			c1.152,0,1.891-0.72,2.143-1.458c0.055-0.181,0.072-0.361,0.072-0.505V527.621z"/>
		<path fill="#FFFFFF" d="M466.764,530.16c0.701,0.45,1.71,0.793,2.791,0.793c1.602,0,2.538-0.847,2.538-2.071
			c0-1.116-0.648-1.782-2.286-2.395c-1.98-0.72-3.205-1.765-3.205-3.457c0-1.891,1.566-3.295,3.925-3.295
			c1.224,0,2.143,0.288,2.665,0.594l-0.433,1.278c-0.378-0.234-1.188-0.576-2.286-0.576c-1.656,0-2.287,0.99-2.287,1.818
			c0,1.135,0.738,1.693,2.412,2.342c2.053,0.791,3.08,1.781,3.08,3.564c0,1.873-1.369,3.512-4.232,3.512
			c-1.17,0-2.448-0.361-3.096-0.793L466.764,530.16z"/>
		<path fill="#FFFFFF" d="M482.102,531.763c-0.414,0.198-1.333,0.505-2.504,0.505c-2.629,0-4.339-1.783-4.339-4.448
			c0-2.683,1.837-4.646,4.682-4.646c0.937,0,1.765,0.234,2.196,0.469l-0.359,1.206c-0.379-0.198-0.973-0.414-1.837-0.414
			c-1.999,0-3.079,1.495-3.079,3.295c0,2.017,1.297,3.259,3.025,3.259c0.9,0,1.494-0.216,1.944-0.414L482.102,531.763z"/>
		<path fill="#FFFFFF" d="M483.953,526.073c0-1.026-0.018-1.909-0.072-2.719h1.387l0.072,1.729h0.054
			c0.396-1.171,1.368-1.909,2.431-1.909c0.162,0,0.288,0.019,0.432,0.036v1.495c-0.162-0.037-0.324-0.037-0.539-0.037
			c-1.117,0-1.909,0.829-2.125,2.018c-0.036,0.216-0.055,0.486-0.055,0.738v4.645h-1.584V526.073z"/>
		<path fill="#FFFFFF" d="M491.676,520.905c0,0.54-0.379,0.973-1.008,0.973c-0.576,0-0.955-0.433-0.955-0.973s0.396-0.99,0.99-0.99
			C491.279,519.915,491.676,520.348,491.676,520.905z M489.911,532.068v-8.714h1.585v8.714H489.911z"/>
		<path fill="#FFFFFF" d="M494.123,526.199c0-1.116-0.036-2.017-0.072-2.845h1.404l0.09,1.494h0.037
			c0.629-1.063,1.674-1.675,3.096-1.675c2.125,0,3.709,1.783,3.709,4.412c0,3.133-1.926,4.682-3.979,4.682
			c-1.152,0-2.16-0.505-2.683-1.369h-0.036v4.735h-1.566V526.199z M495.689,528.521c0,0.234,0.018,0.45,0.072,0.648
			c0.287,1.099,1.242,1.854,2.377,1.854c1.674,0,2.646-1.368,2.646-3.366c0-1.729-0.918-3.224-2.593-3.224
			c-1.081,0-2.106,0.757-2.396,1.944c-0.053,0.198-0.107,0.433-0.107,0.631V528.521z"/>
		<path fill="#FFFFFF" d="M506.273,521.266v2.089h2.269v1.206h-2.269v4.699c0,1.08,0.307,1.693,1.188,1.693
			c0.433,0,0.686-0.037,0.919-0.108l0.071,1.206c-0.305,0.107-0.791,0.217-1.404,0.217c-0.738,0-1.332-0.253-1.71-0.667
			c-0.433-0.485-0.612-1.261-0.612-2.286v-4.754h-1.35v-1.206h1.35v-1.62L506.273,521.266z"/>
		<path fill="#FFFFFF" d="M509.891,531.133c0-0.648,0.449-1.135,1.08-1.135s1.063,0.469,1.063,1.135
			c0,0.648-0.432,1.135-1.099,1.135C510.322,532.268,509.891,531.781,509.891,531.133z"/>
		<path fill="#FFFFFF" d="M511.852,534.625c0.738-0.053,1.35-0.252,1.729-0.684c0.432-0.486,0.611-1.17,0.611-3.259v-7.328h1.586
			v7.94c0,1.692-0.271,2.791-1.045,3.583c-0.702,0.702-1.854,0.99-2.701,0.99L511.852,534.625z M515.957,520.905
			c0,0.522-0.36,0.973-1.009,0.973c-0.576,0-0.954-0.45-0.954-0.973c0-0.54,0.396-0.99,0.99-0.99S515.957,520.365,515.957,520.905z"
			/>
		<path fill="#FFFFFF" d="M518.152,530.467c0.486,0.287,1.314,0.611,2.106,0.611c1.134,0,1.675-0.558,1.675-1.296
			c0-0.757-0.451-1.152-1.604-1.585c-1.584-0.576-2.322-1.422-2.322-2.467c0-1.404,1.152-2.557,3.008-2.557
			c0.881,0,1.656,0.234,2.124,0.541l-0.378,1.152c-0.342-0.217-0.973-0.522-1.783-0.522c-0.936,0-1.439,0.54-1.439,1.188
			c0,0.72,0.504,1.044,1.638,1.494c1.495,0.559,2.286,1.314,2.286,2.611c0,1.548-1.205,2.629-3.24,2.629
			c-0.954,0-1.836-0.253-2.449-0.613L518.152,530.467z"/>
	</g>
	<g>
		<path fill="#FFFFFF" d="M111.775,75.055h1.584v8.121c0,3.223-1.584,4.213-3.673,4.213c-0.594,0-1.296-0.126-1.674-0.288
			l0.216-1.279c0.324,0.126,0.792,0.234,1.333,0.234c1.404,0,2.214-0.63,2.214-3.007V75.055z"/>
		<path fill="#FFFFFF" d="M122.037,85.103c0,0.756,0.036,1.494,0.126,2.088h-1.423l-0.126-1.098h-0.054
			c-0.486,0.684-1.423,1.296-2.665,1.296c-1.765,0-2.665-1.243-2.665-2.503c0-2.106,1.873-3.259,5.239-3.241v-0.18
			c0-0.702-0.198-2.017-1.98-1.999c-0.828,0-1.674,0.234-2.287,0.648l-0.36-1.062c0.72-0.45,1.783-0.756,2.881-0.756
			c2.665,0,3.313,1.818,3.313,3.547V85.103z M120.506,82.744c-1.729-0.036-3.691,0.27-3.691,1.962c0,1.044,0.684,1.513,1.476,1.513
			c1.152,0,1.891-0.72,2.143-1.458c0.054-0.18,0.072-0.36,0.072-0.504V82.744z"/>
		<path fill="#FFFFFF" d="M125.059,78.477l1.71,4.879c0.288,0.81,0.522,1.53,0.702,2.25h0.054c0.198-0.72,0.45-1.44,0.738-2.25
			l1.693-4.879h1.656l-3.421,8.714h-1.513l-3.313-8.714H125.059z"/>
		<path fill="#FFFFFF" d="M139.154,85.103c0,0.756,0.036,1.494,0.126,2.088h-1.422l-0.126-1.098h-0.054
			c-0.486,0.684-1.422,1.296-2.665,1.296c-1.765,0-2.665-1.243-2.665-2.503c0-2.106,1.873-3.259,5.239-3.241v-0.18
			c0-0.702-0.198-2.017-1.98-1.999c-0.828,0-1.674,0.234-2.287,0.648l-0.36-1.062c0.72-0.45,1.783-0.756,2.881-0.756
			c2.665,0,3.313,1.818,3.313,3.547V85.103z M137.624,82.744c-1.729-0.036-3.691,0.27-3.691,1.962c0,1.044,0.684,1.513,1.476,1.513
			c1.152,0,1.891-0.72,2.143-1.458c0.054-0.18,0.072-0.36,0.072-0.504V82.744z"/>
		<path fill="#FFFFFF" d="M141.564,85.282c0.702,0.45,1.71,0.792,2.791,0.792c1.602,0,2.539-0.846,2.539-2.071
			c0-1.116-0.648-1.782-2.287-2.395c-1.98-0.72-3.205-1.765-3.205-3.457c0-1.891,1.566-3.295,3.925-3.295
			c1.224,0,2.143,0.288,2.665,0.594l-0.432,1.279c-0.378-0.234-1.188-0.576-2.287-0.576c-1.656,0-2.287,0.99-2.287,1.818
			c0,1.134,0.738,1.692,2.413,2.341c2.053,0.792,3.079,1.782,3.079,3.565c0,1.873-1.369,3.511-4.231,3.511
			c-1.17,0-2.449-0.36-3.097-0.792L141.564,85.282z"/>
		<path fill="#FFFFFF" d="M156.902,86.885c-0.414,0.198-1.333,0.504-2.503,0.504c-2.629,0-4.339-1.783-4.339-4.448
			c0-2.683,1.836-4.645,4.682-4.645c0.936,0,1.764,0.234,2.197,0.468l-0.36,1.206c-0.378-0.198-0.972-0.414-1.836-0.414
			c-1.999,0-3.079,1.495-3.079,3.295c0,2.017,1.296,3.259,3.025,3.259c0.9,0,1.495-0.216,1.945-0.414L156.902,86.885z"/>
		<path fill="#FFFFFF" d="M158.754,81.195c0-1.026-0.018-1.909-0.072-2.719h1.387l0.072,1.729h0.054
			c0.396-1.17,1.368-1.909,2.431-1.909c0.162,0,0.288,0.018,0.432,0.036v1.495c-0.162-0.036-0.324-0.036-0.54-0.036
			c-1.116,0-1.909,0.829-2.125,2.017c-0.036,0.216-0.054,0.486-0.054,0.738v4.646h-1.584V81.195z"/>
		<path fill="#FFFFFF" d="M166.477,76.027c0,0.541-0.378,0.973-1.008,0.973c-0.576,0-0.955-0.432-0.955-0.973
			c0-0.54,0.396-0.99,0.99-0.99C166.081,75.037,166.477,75.469,166.477,76.027z M164.712,87.191v-8.714h1.584v8.714H164.712z"/>
		<path fill="#FFFFFF" d="M168.924,81.321c0-1.116-0.036-2.017-0.072-2.845h1.405l0.09,1.494h0.036
			c0.63-1.063,1.674-1.674,3.097-1.674c2.125,0,3.709,1.782,3.709,4.411c0,3.133-1.926,4.682-3.979,4.682
			c-1.152,0-2.161-0.504-2.683-1.369h-0.036v4.735h-1.566V81.321z M170.491,83.644c0,0.234,0.018,0.45,0.072,0.648
			c0.288,1.099,1.243,1.854,2.377,1.854c1.674,0,2.647-1.368,2.647-3.367c0-1.729-0.918-3.223-2.593-3.223
			c-1.081,0-2.107,0.756-2.395,1.944c-0.054,0.198-0.108,0.433-0.108,0.63V83.644z"/>
		<path fill="#FFFFFF" d="M181.075,76.388v2.089h2.269v1.206h-2.269v4.699c0,1.081,0.306,1.693,1.188,1.693
			c0.432,0,0.685-0.036,0.918-0.108l0.072,1.206c-0.306,0.108-0.792,0.216-1.404,0.216c-0.738,0-1.332-0.252-1.71-0.667
			c-0.432-0.486-0.612-1.26-0.612-2.287v-4.753h-1.35v-1.206h1.35v-1.621L181.075,76.388z"/>
		<path fill="#FFFFFF" d="M184.691,86.255c0-0.648,0.45-1.135,1.081-1.135s1.063,0.468,1.063,1.135c0,0.648-0.432,1.134-1.099,1.134
			C185.124,87.389,184.691,86.903,184.691,86.255z"/>
		<path fill="#FFFFFF" d="M186.653,89.748c0.738-0.054,1.35-0.252,1.729-0.684c0.432-0.486,0.612-1.17,0.612-3.259v-7.328h1.585
			v7.94c0,1.693-0.271,2.791-1.044,3.583c-0.702,0.702-1.854,0.99-2.701,0.99L186.653,89.748z M190.758,76.027
			c0,0.522-0.36,0.973-1.008,0.973c-0.576,0-0.954-0.45-0.954-0.973c0-0.54,0.396-0.99,0.99-0.99S190.758,75.487,190.758,76.027z"/>
		<path fill="#FFFFFF" d="M192.953,85.588c0.486,0.288,1.314,0.612,2.107,0.612c1.134,0,1.674-0.558,1.674-1.296
			c0-0.756-0.45-1.152-1.603-1.584c-1.584-0.576-2.323-1.422-2.323-2.467c0-1.404,1.152-2.557,3.007-2.557
			c0.882,0,1.656,0.234,2.125,0.54l-0.378,1.152c-0.342-0.216-0.972-0.522-1.782-0.522c-0.937,0-1.44,0.54-1.44,1.188
			c0,0.72,0.504,1.044,1.638,1.495c1.495,0.558,2.287,1.314,2.287,2.611c0,1.548-1.206,2.629-3.241,2.629
			c-0.954,0-1.836-0.252-2.449-0.612L192.953,85.588z"/>
	</g>
	<g opacity="0.5">
		<path fill="#FFFFFF" d="M294.049,316.814v3.385h5.784v4.992h-18.624v-8.377c0-0.896,0.152-1.756,0.456-2.58
			c0.304-0.823,0.728-1.551,1.272-2.184c0.544-0.632,1.2-1.136,1.968-1.512c0.768-0.376,1.608-0.564,2.52-0.564
			c0.928,0,1.792,0.188,2.592,0.564c0.8,0.376,1.5,0.88,2.1,1.512c0.6,0.633,1.072,1.36,1.416,2.184
			C293.878,315.059,294.049,315.919,294.049,316.814z M285.361,317.175v2.904h4.008v-2.904c0-0.288-0.051-0.56-0.155-0.815
			s-0.247-0.48-0.43-0.672c-0.183-0.192-0.394-0.344-0.632-0.457c-0.238-0.111-0.501-0.168-0.787-0.168s-0.549,0.057-0.787,0.168
			c-0.239,0.113-0.45,0.265-0.632,0.457c-0.183,0.191-0.326,0.416-0.43,0.672S285.361,316.887,285.361,317.175z"/>
		<path fill="#FFFFFF" d="M299.833,296.416l-5.76,3.24v3.144l5.76-0.023v5.136h-18.624v-9.336c0-0.448,0.084-0.904,0.252-1.368
			s0.392-0.912,0.672-1.344c0.28-0.432,0.597-0.832,0.948-1.2c0.352-0.368,0.712-0.68,1.08-0.936c0.464-0.32,1.004-0.564,1.62-0.732
			c0.616-0.168,1.204-0.252,1.764-0.252c0.928,0,1.792,0.216,2.592,0.648c0.8,0.432,1.472,1.032,2.016,1.8l7.68-4.368V296.416z
			 M285.361,300.039v2.904h4.008v-2.904c0-0.288-0.051-0.56-0.155-0.816c-0.104-0.255-0.247-0.48-0.43-0.672
			s-0.394-0.344-0.632-0.456c-0.238-0.112-0.501-0.168-0.787-0.168s-0.549,0.056-0.787,0.168c-0.239,0.112-0.45,0.264-0.632,0.456
			c-0.183,0.192-0.326,0.417-0.43,0.672C285.413,299.479,285.361,299.751,285.361,300.039z"/>
		<path fill="#FFFFFF" d="M300.41,281.199c0,1.376-0.256,2.664-0.768,3.864c-0.512,1.2-1.212,2.248-2.1,3.144
			s-1.932,1.604-3.132,2.124c-1.2,0.52-2.48,0.78-3.84,0.78c-1.359,0-2.64-0.26-3.84-0.78s-2.244-1.228-3.132-2.124
			c-0.888-0.896-1.592-1.944-2.112-3.144c-0.52-1.2-0.78-2.488-0.78-3.864c0-1.359,0.26-2.644,0.78-3.852
			c0.521-1.208,1.224-2.26,2.112-3.156c0.888-0.896,1.932-1.604,3.132-2.124c1.2-0.52,2.48-0.78,3.84-0.78
			c1.36,0,2.64,0.26,3.84,0.78c1.2,0.52,2.244,1.228,3.132,2.124c0.888,0.896,1.588,1.948,2.1,3.156
			C300.153,278.556,300.41,279.84,300.41,281.199z M285.458,281.199c0,0.705,0.14,1.356,0.42,1.956
			c0.28,0.6,0.652,1.116,1.116,1.548c0.464,0.432,1.004,0.772,1.62,1.02c0.616,0.248,1.269,0.372,1.956,0.372
			c0.672,0,1.32-0.124,1.944-0.372s1.168-0.588,1.632-1.02c0.464-0.432,0.836-0.948,1.116-1.548c0.28-0.6,0.42-1.251,0.42-1.956
			c0-0.704-0.14-1.356-0.42-1.956c-0.28-0.6-0.652-1.116-1.116-1.548c-0.464-0.432-1.008-0.771-1.632-1.02
			c-0.624-0.248-1.272-0.372-1.944-0.372c-0.688,0-1.34,0.125-1.956,0.372c-0.616,0.249-1.156,0.588-1.62,1.02
			c-0.464,0.432-0.836,0.948-1.116,1.548C285.598,279.843,285.458,280.496,285.458,281.199z"/>
	</g>
</g>
</svg>
