<?xml version="1.0" encoding="utf-8"?>
<!-- Generator: Adobe Illustrator 15.1.0, SVG Export Plug-In . SVG Version: 6.00 Build 0)  -->
<!DOCTYPE svg PUBLIC "-//W3C//DTD SVG 1.0//EN" "http://www.w3.org/TR/2001/REC-SVG-20010904/DTD/svg10.dtd">
<svg version="1.0" xmlns="http://www.w3.org/2000/svg" xmlns:xlink="http://www.w3.org/1999/xlink" x="0px" y="0px" width="1024px"
	 height="319.484px" viewBox="0 0 1024 319.484" enable-background="new 0 0 1024 319.484" xml:space="preserve">
<g id="White">
	<g>
		<path fill="#58595B" d="M318.938,152.265l118.028,157.238h-96.883l-81.886-100.34v100.34H186.99V11.175h71.207v100.34
			l81.886-100.34h100.721L318.938,152.265z"/>
		<path fill="#58595B" d="M738.261,309.503l-51.904-92.263h-50.359l0.387,92.263H564.79V11.175h138.869
			c7.174,0,14.475,1.345,21.91,4.035c7.436,2.694,14.611,6.283,21.525,10.765c6.924,4.487,13.328,9.553,19.23,15.187
			c5.893,5.639,10.887,11.407,14.986,17.298c5.131,7.439,9.041,16.087,11.732,25.952c2.689,9.869,4.035,19.288,4.035,28.257
			c0,14.866-3.463,28.705-10.387,41.519c-6.914,12.82-16.529,23.579-28.826,32.292l69.967,123.022H738.261z M680.204,77.684h-46.512
			v64.202h46.512c4.621,0,8.969-0.822,13.078-2.479c4.088-1.658,7.686-3.948,10.762-6.878c3.076-2.933,5.508-6.31,7.301-10.129
			c1.793-3.819,2.691-8.024,2.691-12.613c0-4.583-0.898-8.789-2.691-12.608c-1.793-3.822-4.225-7.199-7.301-10.128
			c-3.076-2.931-6.674-5.22-10.762-6.878C689.173,78.513,684.825,77.684,680.204,77.684z"/>
		<path fill="#231F20" d="M60.292,302.777c-10.001-4.484-18.771-10.507-26.333-18.072c-7.561-7.551-13.458-16.395-17.687-26.521
			c-4.229-10.126-6.341-20.826-6.341-32.104c0-6.403,0.959-13.005,2.878-19.799c1.925-6.789,4.558-13.266,7.885-19.413
			c3.332-6.153,7.367-11.79,12.107-16.921c4.745-5.12,9.938-9.475,15.57-13.067c-8.708-7.941-15.377-17.233-19.992-27.874
			c-4.609-10.632-6.92-21.72-6.92-33.254c0-9.993,1.731-19.73,5.188-29.216c3.463-9.479,8.4-18.071,14.804-25.759
			c3.593-4.354,7.879-8.325,12.88-11.917c5-3.584,10.382-6.727,16.148-9.419c5.768-2.691,11.659-4.738,17.682-6.151
			c6.023-1.405,11.857-2.114,17.494-2.114h156.081v298.328H92.583C81.049,309.503,70.282,307.261,60.292,302.777z M108.535,80.181
			c-6.018,6.026-9.031,13.138-9.031,21.338c0,8.207,3.014,15.319,9.031,21.337c6.027,6.025,13.14,9.034,21.337,9.034h53.437V71.147
			h-53.437C121.674,71.147,114.562,74.165,108.535,80.181z M105.656,194.939c-5.892,5.897-8.843,12.947-8.843,21.145
			c0,8.457,2.951,15.638,8.843,21.53c5.897,5.897,13.067,8.838,21.525,8.838h56.127v-60.351h-56.127
			C118.723,186.101,111.553,189.047,105.656,194.939z"/>
		<path fill="#231F20" d="M447.691,297.783c-18.188-7.822-34.082-18.459-47.669-31.913c-13.578-13.453-24.278-29.278-32.1-47.481
			c-7.811-18.193-11.721-37.543-11.721-58.049c0-20.5,3.91-39.85,11.721-58.051c7.822-18.196,18.521-34.023,32.1-47.48
			c13.588-13.456,29.482-24.087,47.669-31.906c18.209-7.816,37.678-11.727,58.442-11.727h133.404v298.328H506.133
			C485.37,309.503,465.9,305.598,447.691,297.783z M485.182,89.794c-9.354,3.976-17.499,9.42-24.413,16.339
			c-6.925,6.92-12.369,15.06-16.342,24.412c-3.974,9.359-5.955,19.287-5.955,29.794c0,10.515,1.981,20.443,5.955,29.797
			c3.973,9.355,9.417,17.489,16.342,24.409c6.914,6.919,15.059,12.368,24.413,16.336c9.355,3.979,19.408,5.966,30.171,5.966h45.75
			V83.834h-45.75C504.59,83.834,494.537,85.824,485.182,89.794z"/>
		<g>
			<path fill="#231F20" d="M893.061,198.625c0,2.43-0.428,4.813-1.278,7.134c-0.851,2.325-2.069,4.275-3.65,5.86
				c-2.163,2.138-4.578,3.76-7.248,4.854c-2.658,1.096-5.975,1.643-9.944,1.643h-8.722v17.703H848.2v-54.35h23.068
				c3.458,0,6.373,0.298,8.74,0.897c2.377,0.594,4.473,1.491,6.299,2.68c2.189,1.439,3.862,3.274,5.016,5.512
				C892.481,192.796,893.061,195.487,893.061,198.625z M878.569,198.939c0-1.533-0.413-2.848-1.242-3.953s-1.788-1.877-2.882-2.314
				c-1.461-0.579-2.884-0.902-4.271-0.96c-1.389-0.063-3.239-0.094-5.549-0.094h-2.408v16.242h4.014c2.384,0,4.35-0.146,5.893-0.438
				c1.548-0.287,2.843-0.871,3.891-1.747c0.901-0.776,1.553-1.705,1.949-2.784C878.37,201.806,878.569,200.493,878.569,198.939z"/>
			<path fill="#231F20" d="M955.33,235.82h-17.12l-14.787-19.93h-6.491v19.93h-13.943v-54.35h23.506
				c3.213,0,5.977,0.183,8.286,0.548s4.479,1.152,6.496,2.372c2.045,1.221,3.672,2.795,4.871,4.725
				c1.209,1.939,1.81,4.364,1.81,7.284c0,4.016-0.935,7.284-2.79,9.819c-1.867,2.533-4.521,4.635-7.979,6.314L955.33,235.82z
				 M933.466,198.115c0-1.366-0.281-2.534-0.839-3.504c-0.56-0.97-1.523-1.742-2.884-2.3c-0.949-0.391-2.055-0.626-3.321-0.714
				c-1.269-0.084-2.739-0.126-4.417-0.126h-5.073v14.637h4.307c2.237,0,4.114-0.109,5.621-0.328s2.773-0.72,3.795-1.496
				c0.976-0.757,1.685-1.591,2.134-2.498C933.242,200.868,933.466,199.648,933.466,198.115z"/>
			<path fill="#231F20" d="M1014.314,208.664c0,8.661-2.482,15.544-7.445,20.644c-4.965,5.094-11.828,7.644-20.588,7.644
				c-8.733,0-15.585-2.55-20.55-7.644c-4.963-5.1-7.445-11.982-7.445-20.644c0-8.734,2.482-15.638,7.445-20.717
				c4.965-5.068,11.816-7.607,20.55-7.607c8.714,0,15.561,2.539,20.55,7.607C1011.822,193.026,1014.314,199.929,1014.314,208.664z
				 M995.735,222.424c1.36-1.658,2.372-3.608,3.03-5.861c0.656-2.247,0.985-4.891,0.985-7.937c0-3.264-0.375-6.038-1.132-8.322
				c-0.757-2.283-1.742-4.14-2.956-5.548c-1.242-1.46-2.67-2.519-4.287-3.176c-1.622-0.656-3.305-0.985-5.057-0.985
				c-1.778,0-3.453,0.313-5.018,0.949c-1.574,0.637-3.014,1.679-4.328,3.139c-1.214,1.367-2.211,3.244-2.971,5.643
				c-0.773,2.394-1.153,5.173-1.153,8.338c0,3.238,0.37,5.991,1.11,8.265c0.745,2.278,1.726,4.13,2.941,5.568
				c1.216,1.439,2.639,2.493,4.271,3.176c1.632,0.684,3.348,1.022,5.147,1.022c1.798,0,3.514-0.35,5.146-1.038
				C993.097,224.958,994.521,223.884,995.735,222.424z"/>
			<path fill="#EB2050" d="M894.092,268.514l-15.804,40.989h-14.893L847.7,268.514h13.876l9.51,28.214l9.392-28.214H894.092z"/>
			<path fill="#EB2050" d="M944.609,309.503H901.94v-8.979c3.259-2.357,6.527-4.871,9.803-7.52c3.269-2.648,5.893-4.943,7.863-6.861
				c2.946-2.848,5.037-5.33,6.277-7.447c1.242-2.117,1.862-4.213,1.862-6.277c0-2.482-0.798-4.4-2.394-5.746
				c-1.591-1.356-3.886-2.028-6.878-2.028c-2.237,0-4.595,0.464-7.065,1.387c-2.466,0.923-4.761,2.101-6.878,3.54h-1.168v-12.081
				c1.726-0.756,4.275-1.507,7.649-2.264c3.369-0.756,6.741-1.131,10.127-1.131c6.813,0,12.009,1.429,15.585,4.286
				c3.576,2.862,5.366,6.903,5.366,12.139c0,3.432-0.855,6.695-2.576,9.783c-1.711,3.086-4.333,6.277-7.863,9.563
				c-2.216,2.043-4.443,3.922-6.681,5.643c-2.235,1.709-3.831,2.908-4.78,3.593h24.419V309.503z"/>
		</g>
	</g>
</g>
</svg>
