<?xml version="1.0" encoding="utf-8"?>
<!-- Generator: Adobe Illustrator 15.1.0, SVG Export Plug-In . SVG Version: 6.00 Build 0)  -->
<!DOCTYPE svg PUBLIC "-//W3C//DTD SVG 1.0//EN" "http://www.w3.org/TR/2001/REC-SVG-20010904/DTD/svg10.dtd">
<svg version="1.0" id="Layer_1" xmlns="http://www.w3.org/2000/svg" xmlns:xlink="http://www.w3.org/1999/xlink" x="0px" y="0px"
	 width="832px" height="991.381px" viewBox="0 0 832 991.381" enable-background="new 0 0 832 991.381" xml:space="preserve">
<g>
	<g>
		<g>
			<g>
				<g>
					<path fill="#7E7B80" d="M832,320.381c0-17.6-14.4-32-32-32H32c-17.6,0-32,14.4-32,32v448h832V320.381z"/>
				</g>
				<g>
					<polygon fill="#DDDDDE" points="544,976.881 288,976.881 320,832.381 512,832.381 					"/>
				</g>
				<g>
					<rect x="256" y="960.381" fill="#EFEFEF" width="320" height="31"/>
				</g>
				<g>
					<path fill="#4E4A51" d="M799.942,320.381c0.02,0.017,0.041,0.038,0.058,0.058v415.942H32V320.438
						c0.017-0.02,0.038-0.041,0.058-0.058H799.942L799.942,320.381z M800,288.381H32c-17.6,0-32,14.4-32,32v448h832v-448
						C832,302.781,817.6,288.381,800,288.381L800,288.381z"/>
				</g>
				<g>
					<path fill="#EFEFEF" d="M0,768.381v64c0,17.6,14.4,32,32,32h768c17.6,0,32-14.4,32-32v-64H0z"/>
				</g>
				<g>
					<circle fill="#3E3A41" cx="416" cy="816.381" r="16"/>
				</g>
			</g>
			<g>
				<defs>
					<rect id="SVGID_1_" y="-63.619" width="832" height="800"/>
				</defs>
				<clipPath id="SVGID_2_">
					<use xlink:href="#SVGID_1_"  overflow="visible"/>
				</clipPath>
				<g clip-path="url(#SVGID_2_)">
					<g>
						<rect x="511.998" y="4.381" fill="#F9B040" width="128.008" height="1216"/>
					</g>
					<g>
						<g>
							<g>
								<rect x="512.002" y="130.381" fill="#FFFFFF" width="48" height="4"/>
							</g>
						</g>
						<g>
							<g>
								<rect x="512.002" y="258.381" fill="#FFFFFF" width="48" height="4"/>
							</g>
						</g>
						<g>
							<g>
								<rect x="512.002" y="386.381" fill="#FFFFFF" width="48" height="4"/>
							</g>
						</g>
						<g>
							<g>
								<rect x="512.002" y="514.381" fill="#FFFFFF" width="48" height="4"/>
							</g>
						</g>
						<g>
							<g>
								<rect x="512.002" y="642.381" fill="#FFFFFF" width="48" height="4"/>
							</g>
						</g>
						<g>
							<g>
								<rect x="512.002" y="770.381" fill="#FFFFFF" width="48" height="4"/>
							</g>
						</g>
						<g>
							<g>
								<rect x="512.002" y="898.381" fill="#FFFFFF" width="48" height="4"/>
							</g>
						</g>
						<g>
							<g>
								<rect x="512.002" y="1026.381" fill="#FFFFFF" width="48" height="4"/>
							</g>
						</g>
						<g>
							<g>
								<rect x="512.002" y="1154.381" fill="#FFFFFF" width="48" height="4"/>
							</g>
						</g>
					</g>
					<g>
						<g>
							<g>
								<rect x="512.002" y="162.381" fill="#FFFFFF" width="32" height="4"/>
							</g>
						</g>
						<g>
							<g>
								<rect x="512.002" y="194.381" fill="#FFFFFF" width="32" height="4"/>
							</g>
						</g>
						<g>
							<g>
								<rect x="512.002" y="226.381" fill="#FFFFFF" width="32" height="4"/>
							</g>
						</g>
						<g>
							<g>
								<rect x="512.002" y="258.381" fill="#FFFFFF" width="32" height="4"/>
							</g>
						</g>
						<g>
							<g>
								<rect x="512.002" y="290.381" fill="#FFFFFF" width="32" height="4"/>
							</g>
						</g>
						<g>
							<g>
								<rect x="512.002" y="322.381" fill="#FFFFFF" width="32" height="4"/>
							</g>
						</g>
						<g>
							<g>
								<rect x="512.002" y="354.381" fill="#FFFFFF" width="32" height="4"/>
							</g>
						</g>
						<g>
							<g>
								<rect x="512.002" y="386.381" fill="#FFFFFF" width="32" height="4"/>
							</g>
						</g>
						<g>
							<g>
								<rect x="512.002" y="418.381" fill="#FFFFFF" width="32" height="4"/>
							</g>
						</g>
						<g>
							<g>
								<rect x="512.002" y="450.381" fill="#FFFFFF" width="32" height="4"/>
							</g>
						</g>
						<g>
							<g>
								<rect x="512.002" y="482.381" fill="#FFFFFF" width="32" height="4"/>
							</g>
						</g>
						<g>
							<g>
								<rect x="512.002" y="514.381" fill="#FFFFFF" width="32" height="4"/>
							</g>
						</g>
						<g>
							<g>
								<rect x="512.002" y="546.381" fill="#FFFFFF" width="32" height="4"/>
							</g>
						</g>
						<g>
							<g>
								<rect x="512.002" y="578.381" fill="#FFFFFF" width="32" height="4"/>
							</g>
						</g>
						<g>
							<g>
								<rect x="512.002" y="610.381" fill="#FFFFFF" width="32" height="4"/>
							</g>
						</g>
						<g>
							<g>
								<rect x="512.002" y="642.381" fill="#FFFFFF" width="32" height="4"/>
							</g>
						</g>
						<g>
							<g>
								<rect x="512.002" y="674.381" fill="#FFFFFF" width="32" height="4"/>
							</g>
						</g>
						<g>
							<g>
								<rect x="512.002" y="706.381" fill="#FFFFFF" width="32" height="4"/>
							</g>
						</g>
						<g>
							<g>
								<rect x="512.002" y="738.381" fill="#FFFFFF" width="32" height="4"/>
							</g>
						</g>
						<g>
							<g>
								<rect x="512.002" y="770.381" fill="#FFFFFF" width="32" height="4"/>
							</g>
						</g>
						<g>
							<g>
								<rect x="512.002" y="802.381" fill="#FFFFFF" width="32" height="4"/>
							</g>
						</g>
						<g>
							<g>
								<rect x="512.002" y="834.381" fill="#FFFFFF" width="32" height="4"/>
							</g>
						</g>
						<g>
							<g>
								<rect x="512.002" y="866.381" fill="#FFFFFF" width="32" height="4"/>
							</g>
						</g>
						<g>
							<g>
								<rect x="512.002" y="898.381" fill="#FFFFFF" width="32" height="4"/>
							</g>
						</g>
						<g>
							<g>
								<rect x="512.002" y="930.381" fill="#FFFFFF" width="32" height="4"/>
							</g>
						</g>
						<g>
							<g>
								<rect x="512.002" y="962.381" fill="#FFFFFF" width="32" height="4"/>
							</g>
						</g>
						<g>
							<g>
								<rect x="512.002" y="994.381" fill="#FFFFFF" width="32" height="4"/>
							</g>
						</g>
						<g>
							<g>
								<rect x="512.002" y="1026.381" fill="#FFFFFF" width="32" height="4"/>
							</g>
						</g>
						<g>
							<g>
								<rect x="512.002" y="1058.381" fill="#FFFFFF" width="32" height="4"/>
							</g>
						</g>
						<g>
							<g>
								<rect x="512.002" y="1090.381" fill="#FFFFFF" width="32" height="4"/>
							</g>
						</g>
						<g>
							<g>
								<rect x="512.002" y="1122.381" fill="#FFFFFF" width="32" height="4"/>
							</g>
						</g>
						<g>
							<g>
								<rect x="512.002" y="1154.381" fill="#FFFFFF" width="32" height="4"/>
							</g>
						</g>
					</g>
					<g>
						<circle fill="#FFFFFF" cx="576.002" cy="68.381" r="16"/>
					</g>
				</g>
				<g clip-path="url(#SVGID_2_)">
					<g>
						<polygon fill="#F9B040" points="736.002,207.492 704.002,207.492 704.002,218.162 704.002,935.492 736.002,935.492 
							768.002,935.492 768.002,218.158 768.002,207.492 						"/>
					</g>
					<g>
						<polygon fill="#F5E6D5" points="746.23,131.9 725.772,131.9 704.002,207.492 768.002,207.492 						"/>
					</g>
					<g>
						<polygon fill="#2B3A49" points="736.002,96.381 725.772,131.9 746.23,131.9 						"/>
					</g>
					<g>
						<path fill="#F4A898" d="M704.002,1001.273c0,5.861,4.797,10.662,10.665,10.662h42.668c5.866,0,10.667-4.801,10.667-10.666
							v-51.557h-64V1001.273z"/>
					</g>
					<g>
						<rect x="704.002" y="935.492" fill="#FFFFFF" width="64" height="14.221"/>
					</g>
					<g>
						<g opacity="0.3">
							<polygon fill="#FDFDFD" points="736.002,207.492 736.002,935.492 768.002,935.492 768.002,218.158 768.002,207.492 							
								"/>
						</g>
						<g>
							<polygon fill="#F9B040" points="704.002,207.492 704.002,218.162 704.002,935.492 736.002,935.492 736.002,207.492 							
								"/>
						</g>
					</g>
				</g>
				<g clip-path="url(#SVGID_2_)">
					<g>
						<rect x="64" y="224.381" fill="#3E3A41" width="384" height="512"/>
					</g>
					<g>
						<rect x="64" y="224.381" fill="#7E7B80" width="384" height="32.975"/>
					</g>
					<g>
						<rect x="96" y="284.381" fill="#EF7D65" width="48" height="8"/>
					</g>
					<g>
						<rect x="96" y="268.381" fill="#62C4EE" width="32" height="8"/>
					</g>
					<g>
						<g opacity="0.3">
							<rect x="112.25" y="316.381" fill="#FFFFFF" width="96" height="8"/>
						</g>
						<g opacity="0.3">
							<rect x="112.25" y="460.381" fill="#FFFFFF" width="111.75" height="8"/>
						</g>
						<g>
							<rect x="224" y="316.381" fill="#FFFFFF" width="96" height="8"/>
						</g>
						<g opacity="0.3">
							<rect x="144.125" y="348.381" fill="#FFFFFF" width="79.875" height="8"/>
						</g>
						<g>
							<rect x="128" y="333.117" fill="#EF7D65" width="32.25" height="8"/>
						</g>
						<g>
							<rect x="175.875" y="333.117" fill="#FFFFFF" width="64.125" height="8"/>
						</g>
						<g opacity="0.3">
							<rect x="240.25" y="572.246" fill="#FFFFFF" width="79.75" height="8"/>
						</g>
						<g opacity="0.3">
							<rect x="175.875" y="492.381" fill="#FFFFFF" width="64.125" height="8"/>
						</g>
						<g opacity="0.3">
							<rect x="256.188" y="492.381" fill="#FFFFFF" width="96.063" height="8"/>
						</g>
						<g opacity="0.3">
							<rect x="128" y="572.246" fill="#FFFFFF" width="96.063" height="8"/>
						</g>
						<g opacity="0.3">
							<rect x="160.25" y="365.117" fill="#FFFFFF" width="95.75" height="8"/>
						</g>
						<g>
							<rect x="272" y="365.117" fill="#FFFFFF" width="144" height="8"/>
						</g>
						<g>
							<rect x="96" y="444.066" fill="#62C4EE" width="48" height="8"/>
						</g>
						<g opacity="0.3">
							<rect x="160.063" y="444.066" fill="#FFFFFF" width="111.938" height="8"/>
						</g>
						<g>
							<rect x="128" y="476.381" fill="#FFFFFF" width="47.875" height="8"/>
						</g>
						<g>
							<rect x="144" y="492.381" fill="#62C4EE" width="16.25" height="8"/>
						</g>
						<g>
							<rect x="192.25" y="476.381" fill="#EF7D65" width="63.75" height="8"/>
						</g>
						<g>
							<rect x="192.25" y="700.697" fill="#FFFFFF" width="63.75" height="8"/>
						</g>
						<g>
							<rect x="192.25" y="556.381" fill="#FFFFFF" width="191.75" height="8"/>
						</g>
						<g opacity="0.3">
							<rect x="272.125" y="476.381" fill="#FFFFFF" width="47.875" height="8"/>
						</g>
						<g opacity="0.3">
							<rect x="240" y="348.695" fill="#FFFFFF" width="32" height="8"/>
						</g>
						<g>
							<rect x="160.25" y="508.381" fill="#FFFFFF" width="111.875" height="8"/>
						</g>
						<g opacity="0.3">
							<rect x="128" y="620.959" fill="#FFFFFF" width="160" height="8"/>
						</g>
						<g opacity="0.3">
							<rect x="160.25" y="652.959" fill="#FFFFFF" width="79.75" height="8"/>
						</g>
						<g opacity="0.3">
							<rect x="256.25" y="652.959" fill="#FFFFFF" width="48.125" height="8"/>
						</g>
						<g opacity="0.3">
							<rect x="320.25" y="652.643" fill="#FFFFFF" width="31.75" height="8"/>
						</g>
						<g opacity="0.3">
							<rect x="96" y="397.117" fill="#FFFFFF" width="64" height="8"/>
						</g>
						<g>
							<rect x="112.25" y="412.381" fill="#FFFFFF" width="63.625" height="8"/>
						</g>
						<g opacity="0.3">
							<rect x="112.25" y="700.697" fill="#FFFFFF" width="63.625" height="8"/>
						</g>
						<g>
							<rect x="112.25" y="556.381" fill="#62C4EE" width="63.625" height="8"/>
						</g>
						<g>
							<rect x="288.25" y="348.381" fill="#62C4EE" width="64" height="8"/>
						</g>
						<g>
							<rect x="144.125" y="636.539" fill="#62C4EE" width="79.875" height="8"/>
						</g>
						<g>
							<rect x="240" y="636.854" fill="#FFFFFF" width="32" height="8"/>
						</g>
						<g>
							<rect x="288.25" y="636.539" fill="#EF7D65" width="127.75" height="8"/>
						</g>
						<g>
							<rect x="96" y="540.066" fill="#EF7D65" width="32" height="8"/>
						</g>
						<g>
							<rect x="96" y="684.959" fill="#62C4EE" width="96.25" height="8"/>
						</g>
						<g opacity="0.3">
							<rect x="144" y="588.697" fill="#FFFFFF" width="128.125" height="8"/>
						</g>
					</g>
				</g>
			</g>
		</g>
		<g>
			<path fill="#F9B040" d="M689.109,287.971"/>
		</g>
		<g opacity="0.4">
			<polygon fill="#242C3C" points="704.107,737.948 704.107,288.381 689.109,287.971 			"/>
		</g>
		<g opacity="0.4">
			<polygon fill="#242C3C" points="511.875,737.948 511.875,288.381 496.875,287.971 			"/>
		</g>
		<g opacity="0.4">
			<polygon fill="#242C3C" points="64,737.948 64,288.381 49.001,287.971 			"/>
		</g>
	</g>
</g>
</svg>
