<?xml version="1.0" encoding="utf-8"?>
<!-- Generator: Adobe Illustrator 15.1.0, SVG Export Plug-In . SVG Version: 6.00 Build 0)  -->
<!DOCTYPE svg PUBLIC "-//W3C//DTD SVG 1.0//EN" "http://www.w3.org/TR/2001/REC-SVG-20010904/DTD/svg10.dtd">
<svg version="1.0" id="Layer_1" xmlns="http://www.w3.org/2000/svg" xmlns:xlink="http://www.w3.org/1999/xlink" x="0px" y="0px"
	 width="684.667px" height="188.667px" viewBox="0 0 684.667 188.667" enable-background="new 0 0 684.667 188.667"
	 xml:space="preserve">
<g>
	<polygon fill="#422E21" points="468.667,166.793 495.667,146.687 495.667,124.391 468.667,136.633 	"/>
	<polygon fill="#563E2C" points="531.667,153.691 495.667,146.631 495.667,124.391 531.667,129.452 	"/>
	<polygon fill="#BF9464" points="510.667,174.333 531.667,154.227 531.667,129.452 510.667,144.173 	"/>
	<polygon fill="#BC9F82" points="510.667,174.333 468.667,166.793 468.667,136.633 510.667,144.173 	"/>
</g>
<linearGradient id="SVGID_1_" gradientUnits="userSpaceOnUse" x1="518.9253" y1="102.8257" x2="582.2632" y2="102.8257" gradientTransform="matrix(0.9724 0.2331 -0.2331 0.9724 38.2365 -124.1735)">
	<stop  offset="0" style="stop-color:#E6E6E6"/>
	<stop  offset="1" style="stop-color:#F2F2F2;stop-opacity:0"/>
</linearGradient>
<path opacity="0.7" fill="url(#SVGID_1_)" d="M579.565,115.278c0,0-21.442-6.36-37.288-1.742
	c-14.753,4.3-32.375,20.654-32.375,20.654s15.686-32.539,36.008-46.532c21.387-14.727,38.982-14.62,38.982-14.62"/>
<linearGradient id="SVGID_2_" gradientUnits="userSpaceOnUse" x1="452.1362" y1="99.7476" x2="502.3823" y2="99.7476" gradientTransform="matrix(-0.9362 -0.3516 -0.3516 0.9362 967.1866 169.8163)">
	<stop  offset="0" style="stop-color:#E6E6E6"/>
	<stop  offset="1" style="stop-color:#F2F2F2;stop-opacity:0"/>
</linearGradient>
<path opacity="0.7" fill="url(#SVGID_2_)" d="M460.712,89.417c0,0,16.92,5.35,25.281,15.426c7.785,9.383,12.1,27.963,12.1,27.963
	s4.151-28.357-2.987-46.585c-7.511-19.183-19.123-26.933-19.123-26.933"/>
<linearGradient id="SVGID_3_" gradientUnits="userSpaceOnUse" x1="470.2124" y1="86.6675" x2="608.9634" y2="86.6675" gradientTransform="matrix(-1.1992 0.1545 0.5514 0.5678 951.3815 -33.6253)">
	<stop  offset="0" style="stop-color:#E6E6E6"/>
	<stop  offset="1" style="stop-color:#F2F2F2;stop-opacity:0"/>
</linearGradient>
<path opacity="0.5" fill="url(#SVGID_3_)" d="M273.54,114.447c0,0,57.248-9.033,104.789-3.7
	c44.268,4.964,103.446,25.352,103.446,25.352S418.991,94.78,353.479,77.541c-68.939-18.142-118.79-17.318-118.79-17.318"/>
<linearGradient id="SVGID_4_" gradientUnits="userSpaceOnUse" x1="560.314" y1="17.563" x2="686.4155" y2="17.563" gradientTransform="matrix(-1.8997 0.0908 0.9077 0.6002 1450.8655 11.5078)">
	<stop  offset="0" style="stop-color:#E6E6E6"/>
	<stop  offset="1" style="stop-color:#F2F2F2;stop-opacity:0"/>
</linearGradient>
<path opacity="0.3" fill="url(#SVGID_4_)" d="M157.412,80.797c0,0,76.921-7.797,166.523,1.907
	c90.454,9.797,165.946,50.029,165.946,50.029s-68.35-60.772-198.266-89.731C163,14.333,92.69,24.222,92.69,24.222"/>
<g>
	<path fill="#CF649A" d="M468.479,59.895c-3.275,0.019-6.111,0.805-8.49,1.977c-0.878-1.738-1.756-3.257-1.902-4.392
		c-0.165-1.317-0.366-2.123-0.165-3.696c0.202-1.573,1.116-3.806,1.116-3.988c-0.019-0.165-0.201-0.971-2.086-0.989
		s-3.514,0.366-3.696,0.86c-0.183,0.494-0.548,1.629-0.786,2.8c-0.33,1.721-3.77,7.813-5.729,11.016
		c-0.64-1.244-1.188-2.343-1.299-3.221c-0.164-1.317-0.365-2.123-0.164-3.695c0.201-1.575,1.116-3.807,1.116-3.989
		c-0.019-0.165-0.201-0.971-2.085-0.989c-1.886-0.019-3.514,0.366-3.697,0.861c-0.183,0.493-0.384,1.664-0.786,2.798
		c-0.385,1.135-4.96,11.308-6.148,13.962c-0.604,1.354-1.135,2.434-1.519,3.166c-0.385,0.732-0.02,0.056-0.055,0.127
		c-0.33,0.622-0.513,0.972-0.513,0.972v0.017c-0.256,0.458-0.53,0.896-0.659,0.896c-0.092,0-0.274-1.226,0.037-2.907
		c0.678-3.532,2.324-9.04,2.305-9.241c0-0.092,0.312-1.062-1.061-1.556c-1.336-0.494-1.812,0.33-1.922,0.33
		c-0.109,0-0.201,0.292-0.201,0.292s1.482-6.203-2.836-6.203c-2.708,0-6.441,2.945-8.289,5.637c-1.172,0.641-3.66,1.993-6.294,3.439
		c-1.007,0.549-2.05,1.134-3.038,1.665l-0.201-0.221c-5.232-5.581-14.912-9.532-14.51-17.035c0.146-2.726,1.098-9.917,18.59-18.626
		c14.328-7.136,25.801-5.179,27.795-0.823c2.836,6.221-6.131,17.785-21.024,19.45c-5.672,0.641-8.653-1.555-9.404-2.378
		c-0.786-0.859-0.896-0.896-1.189-0.732c-0.476,0.257-0.183,1.025,0,1.483c0.438,1.152,2.269,3.202,5.38,4.227
		c2.726,0.896,9.387,1.391,17.438-1.721c9.021-3.495,16.064-13.193,13.998-21.299c-2.104-8.251-15.791-10.96-28.728-6.367
		c-7.704,2.745-16.048,7.027-22.05,12.644c-7.135,6.66-8.27,12.479-7.795,14.894c1.666,8.619,13.541,14.235,18.299,18.39
		c-0.238,0.128-0.457,0.256-0.659,0.366c-2.379,1.169-11.437,5.91-13.704,10.923c-2.563,5.672,0.402,9.752,2.378,10.302
		c6.111,1.702,12.369-1.354,15.755-6.387c3.366-5.03,2.964-11.563,1.408-14.546l-0.056-0.11l1.867-1.097
		c1.208-0.714,2.397-1.373,3.44-1.94c-0.586,1.592-1.007,3.478-1.227,6.221c-0.256,3.222,1.061,7.394,2.799,9.04
		c0.77,0.713,1.684,0.732,2.252,0.732c2.013,0,2.928-1.665,3.934-3.661c1.244-2.432,2.342-5.25,2.342-5.25s-1.372,7.629,2.379,7.629
		c1.372,0,2.744-1.774,3.367-2.689v0.019c0,0,0.036-0.054,0.109-0.184c0.077-0.113,0.15-0.229,0.219-0.347V76.71
		c0.551-0.951,1.775-3.129,3.605-6.732c2.36-4.647,4.629-10.467,4.629-10.467s0.221,1.427,0.896,3.77
		c0.402,1.39,1.281,2.909,1.958,4.392c-0.549,0.768-0.878,1.207-0.878,1.207l0.018,0.019c-0.438,0.585-0.932,1.207-1.445,1.829
		c-1.865,2.232-4.098,4.776-4.391,5.509c-0.348,0.859-0.275,1.5,0.402,2.012c0.494,0.366,1.372,0.439,2.305,0.366
		c1.684-0.109,2.855-0.53,3.44-0.788c0.915-0.327,1.958-0.822,2.964-1.555c1.83-1.354,2.947-3.274,2.836-5.836
		c-0.055-1.408-0.512-2.8-1.078-4.116c0.164-0.239,0.329-0.477,0.494-0.732c2.891-4.227,5.123-8.874,5.123-8.874
		s0.219,1.428,0.896,3.77c0.348,1.188,1.043,2.488,1.664,3.769c-2.707,2.214-4.409,4.776-4.994,6.459
		c-1.08,3.111-0.238,4.519,1.354,4.85c0.714,0.146,1.738-0.184,2.507-0.513c0.952-0.312,2.104-0.842,3.165-1.629
		c1.83-1.354,3.588-3.238,3.496-5.782c-0.056-1.171-0.367-2.323-0.788-3.421c2.306-0.951,5.288-1.501,9.077-1.044
		c8.142,0.952,9.752,6.038,9.441,8.162c-0.312,2.122-2.013,3.294-2.58,3.659c-0.568,0.347-0.751,0.476-0.695,0.731
		c0.072,0.384,0.329,0.366,0.822,0.292c0.678-0.109,4.282-1.736,4.429-5.653C481.727,65.331,476.952,59.84,468.479,59.895
		L468.479,59.895z M405.681,81.066c-2.689,2.946-6.478,4.062-8.087,3.11c-1.738-1.006-1.062-5.343,2.25-8.472
		c2.014-1.903,4.63-3.659,6.35-4.739c0.385-0.238,0.971-0.585,1.666-1.006c0.109-0.073,0.182-0.11,0.182-0.11
		c0.129-0.073,0.275-0.165,0.422-0.256C409.688,74.058,408.518,77.973,405.681,81.066L405.681,81.066z M425.351,67.689
		c-0.933,2.289-2.909,8.161-4.099,7.832c-1.024-0.274-1.646-4.72-0.201-9.112c0.732-2.213,2.287-4.849,3.201-5.873
		c1.483-1.646,3.094-2.196,3.496-1.52C428.225,59.895,425.937,66.263,425.351,67.689z M441.582,75.449
		c-0.403,0.201-0.769,0.347-0.933,0.237c-0.129-0.073,0.164-0.348,0.164-0.348s2.031-2.177,2.836-3.183
		c0.457-0.587,1.006-1.264,1.592-2.031v0.219C445.242,72.978,442.715,74.735,441.582,75.449L441.582,75.449z M454.097,72.594
		c-0.293-0.22-0.256-0.896,0.731-3.02c0.385-0.842,1.264-2.251,2.781-3.587c0.184,0.55,0.293,1.08,0.274,1.574
		C457.868,70.855,455.524,72.081,454.097,72.594z"/>
	<g>
		<circle fill="#53C1DE" cx="615.716" cy="84.935" r="7.539"/>
		<path fill="#53C1DE" d="M642.917,71.794c-0.897-0.308-1.804-0.594-2.717-0.855c0.15-0.615,0.291-1.233,0.42-1.854
			c2.058-9.986,0.712-18.031-3.881-20.68c-4.404-2.539-11.606,0.108-18.882,6.439c-0.716,0.625-1.417,1.268-2.102,1.928
			c-0.458-0.438-0.925-0.869-1.398-1.291c-7.624-6.77-15.266-9.622-19.854-6.966c-4.4,2.548-5.703,10.11-3.851,19.574
			c0.184,0.938,0.392,1.869,0.623,2.796c-1.081,0.308-2.126,0.635-3.124,0.982c-8.938,3.116-14.646,8-14.646,13.066
			c0,5.231,6.127,10.479,15.438,13.661c0.754,0.257,1.516,0.494,2.283,0.714c-0.25,0.998-0.471,2.003-0.664,3.015
			c-1.766,9.299-0.386,16.683,4.002,19.214c4.532,2.613,12.139-0.072,19.546-6.547c0.586-0.512,1.174-1.056,1.763-1.625
			c0.741,0.715,1.502,1.41,2.281,2.082c7.176,6.175,14.262,8.668,18.646,6.13c4.528-2.621,5.999-10.554,4.089-20.205
			c-0.146-0.737-0.315-1.489-0.506-2.257c0.534-0.157,1.059-0.32,1.57-0.489c9.678-3.207,15.975-8.391,15.975-13.692
			C657.927,79.851,652.036,74.934,642.917,71.794z M620.225,57.565c6.232-5.424,12.058-7.565,14.712-6.034
			c2.827,1.63,3.927,8.204,2.15,16.826c-0.116,0.562-0.242,1.121-0.38,1.679c-3.502-0.808-7.306-1.409-11.288-1.783
			c-2.319-3.303-4.723-6.307-7.136-8.906C618.916,58.737,619.564,58.142,620.225,57.565z M598.433,89.262
			c0.764,1.475,1.561,2.931,2.393,4.368c0.849,1.466,1.732,2.911,2.65,4.335c-2.765-0.309-5.372-0.727-7.78-1.251
			C596.441,94.308,597.36,91.806,598.433,89.262z M598.428,80.78c-1.051-2.491-1.949-4.94-2.683-7.305
			c2.409-0.539,4.978-0.979,7.653-1.314c-0.896,1.397-1.759,2.815-2.588,4.254C599.983,77.85,599.188,79.306,598.428,80.78z
			 M600.345,85.021c1.111-2.313,2.309-4.583,3.591-6.806v0.001c1.281-2.224,2.646-4.397,4.094-6.517
			c2.511-0.19,5.084-0.289,7.687-0.289c2.614,0,5.192,0.1,7.702,0.291c1.432,2.116,2.788,4.282,4.067,6.494
			c1.286,2.219,2.5,4.478,3.64,6.774c-1.128,2.32-2.338,4.6-3.628,6.833l0,0c-1.279,2.222-2.63,4.401-4.05,6.535
			c-2.505,0.179-5.094,0.271-7.731,0.271c-2.627,0-5.183-0.082-7.644-0.241c-1.457-2.129-2.833-4.312-4.126-6.544
			C602.661,89.602,601.459,87.333,600.345,85.021z M630.622,93.605c0.85-1.473,1.665-2.964,2.448-4.473
			c1.129,2.572,2.08,5.06,2.835,7.426c-2.447,0.559-5.09,1.009-7.875,1.343C628.922,96.487,629.787,95.054,630.622,93.605z
			 M633.036,80.783c-0.78-1.48-1.59-2.945-2.428-4.394c-0.826-1.425-1.683-2.833-2.568-4.222c2.694,0.341,5.274,0.792,7.698,1.346
			C635.01,75.845,634.103,78.283,633.036,80.783z M615.756,61.925c1.664,1.802,3.329,3.813,4.969,5.997
			c-3.324-0.157-6.654-0.157-9.979-0.002C612.387,65.757,614.067,63.749,615.756,61.925z M596.31,51.637
			c2.824-1.635,9.069,0.697,15.652,6.541c0.42,0.374,0.843,0.766,1.266,1.17c-2.452,2.634-4.876,5.632-7.19,8.899
			c-3.971,0.368-7.771,0.959-11.267,1.751c-0.215-0.862-0.408-1.729-0.58-2.602v0.001C592.605,59.29,593.659,53.172,596.31,51.637z
			 M592.193,95.836c-0.699-0.201-1.395-0.419-2.084-0.653c-4.116-1.406-7.516-3.235-9.846-5.229
			c-2.094-1.794-3.151-3.574-3.151-5.019c0-3.074,4.583-6.995,12.228-9.661c0.959-0.332,1.928-0.638,2.905-0.913
			c1.057,3.436,2.442,7.028,4.114,10.662C594.666,88.709,593.259,92.36,592.193,95.836z M611.737,112.275
			c-3.275,2.863-6.558,4.895-9.449,5.916h-0.002c-2.599,0.919-4.668,0.945-5.919,0.224c-2.664-1.535-3.771-7.466-2.261-15.418
			c0.18-0.939,0.386-1.875,0.616-2.803c3.458,0.766,7.286,1.315,11.377,1.646c2.335,3.287,4.781,6.309,7.247,8.954
			C612.822,111.3,612.285,111.795,611.737,112.275z M615.856,108.199c-1.709-1.845-3.413-3.885-5.078-6.078
			c1.615,0.063,3.264,0.096,4.938,0.096c1.721,0,3.422-0.038,5.097-0.113C619.168,104.337,617.508,106.38,615.856,108.199z
			 M637.756,113.217c-0.502,2.709-1.514,4.516-2.764,5.24c-2.66,1.54-8.351-0.462-14.486-5.741
			c-0.703-0.606-1.412-1.252-2.123-1.936c2.379-2.602,4.756-5.627,7.077-8.986c4.081-0.361,7.937-0.953,11.433-1.762
			c0.172,0.694,0.325,1.376,0.458,2.042C638.196,106.342,638.316,110.201,637.756,113.217z M640.818,95.204L640.818,95.204
			c-0.461,0.153-0.936,0.301-1.418,0.443c-1.068-3.382-2.511-6.979-4.275-10.694c1.685-3.628,3.07-7.179,4.109-10.539
			c0.863,0.25,1.702,0.514,2.51,0.792c7.813,2.688,12.577,6.666,12.577,9.729C654.321,88.198,649.174,92.435,640.818,95.204z"/>
	</g>
	<g>
		<path fill="#8CC84B" d="M245.729,55.508c1.918-1.099,4.418-1.104,6.334,0c9.644,5.448,19.29,10.89,28.931,16.342
			c1.813,1.021,3.026,3.039,3.008,5.129v32.784c0.013,2.175-1.319,4.24-3.232,5.24c-9.612,5.418-19.219,10.844-28.828,16.263
			c-1.958,1.119-4.508,1.033-6.404-0.179c-2.882-1.669-5.768-3.332-8.649-5c-0.59-0.352-1.253-0.631-1.669-1.201
			c0.368-0.496,1.024-0.558,1.559-0.773c1.203-0.384,2.308-0.997,3.412-1.593c0.28-0.191,0.621-0.118,0.889,0.053
			c2.464,1.412,4.907,2.867,7.378,4.266c0.527,0.304,1.062-0.1,1.513-0.351c9.431-5.331,18.875-10.642,28.305-15.974
			c0.35-0.168,0.542-0.538,0.514-0.921c0.007-10.814,0.001-21.632,0.003-32.446c0.04-0.434-0.211-0.833-0.604-1.012
			c-9.578-5.394-19.152-10.796-28.728-16.191c-0.339-0.233-0.788-0.234-1.128-0.002c-9.576,5.397-19.147,10.805-28.724,16.199
			c-0.392,0.178-0.653,0.569-0.607,1.006c0.001,10.814,0,21.632,0,32.446c-0.034,0.384,0.174,0.747,0.521,0.911
			c2.555,1.449,5.114,2.888,7.671,4.332c1.441,0.775,3.21,1.236,4.796,0.643c1.401-0.502,2.384-1.932,2.356-3.42
			c0.013-10.751-0.007-21.503,0.01-32.253c-0.035-0.478,0.418-0.872,0.882-0.827c1.228-0.008,2.458-0.016,3.685,0.004
			c0.513-0.012,0.866,0.502,0.802,0.983c-0.004,10.818,0.014,21.639-0.008,32.457c0.003,2.885-1.182,6.021-3.849,7.433
			c-3.286,1.702-7.348,1.342-10.593-0.292c-2.811-1.402-5.492-3.056-8.252-4.56c-1.918-0.992-3.244-3.067-3.231-5.241V76.979
			c-0.021-2.133,1.242-4.188,3.111-5.194C226.513,66.361,236.121,60.934,245.729,55.508z"/>
		<path fill="#8CC84B" d="M254.112,78.218c4.191-0.271,8.679-0.16,12.451,1.904c2.92,1.582,4.538,4.903,4.59,8.146
			c-0.082,0.438-0.54,0.679-0.957,0.649c-1.216-0.002-2.433,0.017-3.649-0.009c-0.516,0.021-0.816-0.455-0.88-0.911
			c-0.35-1.553-1.196-3.09-2.657-3.839c-2.243-1.123-4.843-1.066-7.289-1.043c-1.786,0.096-3.705,0.249-5.219,1.299
			c-1.161,0.796-1.513,2.401-1.099,3.695c0.391,0.927,1.462,1.227,2.339,1.503c5.051,1.321,10.403,1.189,15.358,2.929
			c2.051,0.709,4.059,2.086,4.761,4.234c0.917,2.878,0.515,6.318-1.533,8.629c-1.661,1.902-4.08,2.938-6.492,3.5
			c-3.209,0.714-6.541,0.733-9.8,0.416c-3.064-0.349-6.253-1.155-8.62-3.243c-2.023-1.758-3.011-4.493-2.913-7.136
			c0.023-0.446,0.467-0.758,0.895-0.721c1.224-0.011,2.449-0.013,3.673,0.002c0.489-0.035,0.852,0.387,0.878,0.849
			c0.226,1.479,0.781,3.031,2.071,3.907c2.489,1.606,5.612,1.497,8.462,1.541c2.361-0.104,5.011-0.136,6.938-1.697
			c1.017-0.891,1.318-2.379,1.043-3.659c-0.298-1.081-1.429-1.586-2.4-1.916c-4.987-1.577-10.399-1.005-15.337-2.788
			c-2.006-0.709-3.943-2.049-4.714-4.107c-1.075-2.916-0.583-6.521,1.68-8.754C247.9,79.378,251.084,78.524,254.112,78.218
			L254.112,78.218z"/>
	</g>
	<g>
		<ellipse fill="#8993BE" cx="77.919" cy="60.802" rx="54.148" ry="28.186"/>
		<path fill="#232531" d="M58.633,47.45H44.911l-5.934,30.041h7.047l1.483-7.788h6.675c6.305,0.371,13.352-4.821,13.352-13.723
			C67.534,50.788,64.566,47.821,58.633,47.45z M53.441,64.14h-4.45h0l1.854-11.128h4.821c2.596,0,4.45,1.113,4.45,3.339
			C59.746,62.656,56.779,63.768,53.441,64.14z"/>
		<path fill="#232531" d="M81.732,69.703h7.417l2.596-15.206c0.742-3.709-1.483-6.676-7.418-7.046h-6.675l1.483-7.788h-7.047
			l-5.934,30.041h7.047l3.337-16.69h5.563c2.596,0,2.596,1.113,2.225,2.968L81.732,69.703z"/>
		<path fill="#232531" d="M108.331,47.45H94.609l-5.935,30.041h7.047l1.483-7.788h6.676c6.305,0.371,13.352-4.821,13.352-13.723
			C117.232,50.788,114.265,47.821,108.331,47.45z M103.139,64.14h-4.451h0l1.855-11.128h4.821c2.596,0,4.451,1.113,4.451,3.339
			C109.444,62.656,106.477,63.768,103.139,64.14z"/>
	</g>
</g>
<path fill-rule="evenodd" clip-rule="evenodd" fill="#FF004A" d="M480.532,154.523c1.938,0.322,2.201,1.648,2.2,2.572
	c0,0.806-0.105,1.593-0.212,2.381c-0.115,0.784-0.221,1.602-0.222,2.407c-0.001,3.013,1.639,4.362,3.834,4.728l6.058,1.008
	c2.172,0.36,3.837-0.438,3.838-3.451c0.001-0.806-0.106-1.658-0.21-2.479c-0.114-0.825-0.221-1.646-0.221-2.452
	c0.001-0.924,0.265-2.163,2.144-1.85l0.063-1.457c-1.94-0.323-2.204-1.512-2.203-2.539c0-0.823,0.106-1.63,0.211-2.435
	c0.115-0.803,0.223-1.578,0.224-2.4c0.001-2.713-1.613-4.147-3.861-4.521l-6.031-1.003c-2.25-0.374-3.836,0.527-3.837,3.24
	c-0.001,0.822,0.104,1.633,0.211,2.473c0.113,0.842,0.219,1.683,0.219,2.506c-0.001,1.027-0.265,2.129-2.144,1.817L480.532,154.523z
	 M486.211,164.98l-0.05-0.009l5.911-0.339l0.007-17.549l-4.588-2.184l4.628,0.77c1.536,0.286,2.089,1.289,2.089,2.876
	c-0.001,0.675-0.106,1.362-0.185,2.055c-0.074,0.721-0.176,1.41-0.176,2.203c-0.001,1.882,0.719,2.932,1.857,3.468l-0.001,0.057
	c-1.139,0.127-1.858,1.007-1.859,2.915c0,0.805,0.101,1.566,0.204,2.3c0.048,0.753,0.153,1.456,0.153,2.172
	c-0.001,1.67-0.636,2.459-2.116,2.242L486.211,164.98z M490.489,156.433c0-0.3,0.218-0.507,0.485-0.461
	c0.268,0.043,0.485,0.321,0.484,0.621c0,0.299-0.218,0.506-0.485,0.463C490.706,157.01,490.488,156.732,490.489,156.433z"/>
</svg>
