<svg version="1" xmlns="http://www.w3.org/2000/svg" width="600" height="600" viewBox="0 0 600 600"><g fill="none" stroke="#FFF" stroke-miterlimit="10"><path d="M93.04 121.548a2.29 2.29 0 0 1-2.289-2.288v-74a2.292 2.292 0 0 1 2.289-2.288h120.917a2.292 2.292 0 0 1 2.289 2.288v74a2.29 2.29 0 0 1-2.289 2.288H93.04z"/><path d="M213.956 43.735c.841 0 1.526.685 1.526 1.525v74c0 .841-.685 1.525-1.526 1.525H93.04a1.527 1.527 0 0 1-1.525-1.525v-74c0-.841.684-1.525 1.525-1.525h120.916m0-1.527H93.04a3.051 3.051 0 0 0-3.051 3.052v74a3.052 3.052 0 0 0 3.051 3.052h120.917a3.05 3.05 0 0 0 3.051-3.052v-74a3.053 3.053 0 0 0-3.052-3.052z"/></g><path fill="#FFF" d="M143.39 122.312h20.216v12.969H143.39zM118.978 135.281h68.659v3.433h-68.659z"/><path fill="#FF004A" d="M238.997 304.004c13.684 0 15.551 8.092 15.551 13.928 0 5.072-.746 10.154-1.496 15.236-.816 5.08-1.563 10.352-1.563 15.428 0 19.016 11.588 25.813 27.1 25.813h42.797c15.324 0 27.104-6.797 27.104-25.813 0-5.076-.746-10.348-1.498-15.428-.818-5.082-1.564-10.164-1.564-15.236 0-5.836 1.869-13.928 15.139-13.928l.438-9.256c-13.707 0-15.574-7.229-15.574-13.719 0-5.193.746-10.381 1.496-15.574.818-5.189 1.564-10.197 1.564-15.387 0-17.115-11.4-24.477-27.287-24.477h-42.609c-15.887 0-27.1 7.357-27.1 24.477 0 5.189.746 10.193 1.496 15.387.816 5.193 1.563 10.381 1.563 15.574 0 6.488-1.865 13.719-15.141 13.719l-.416 9.256zm40.149 60.021h-.35l41.748-8.344V244.938l-32.408-8.963h32.689c10.84.188 14.764 5.934 14.764 15.941 0 4.27-.746 8.715-1.309 13.164-.512 4.635-1.238 9.086-1.238 14.092 0 11.869 5.1 17.758 13.129 19.934v.359c-8.029 1.998-13.129 8.301-13.129 20.346 0 5.074.73 9.779 1.457 14.295.344 4.705 1.09 9.031 1.09 13.549 0 10.539-4.484 16.182-14.953 16.371h-41.49v-.001zm30.181-58.425a3.428 3.428 0 0 1 6.856 0 3.428 3.428 0 0 1-6.856 0z"/><g fill="none" stroke="#FFF" stroke-miterlimit="10"><path d="M423.521 159.884a2.29 2.29 0 0 1-2.289-2.288v-74a2.292 2.292 0 0 1 2.289-2.288h120.916a2.29 2.29 0 0 1 2.289 2.288v74a2.289 2.289 0 0 1-2.289 2.288H423.521z"/><path d="M544.438 82.07c.842 0 1.527.685 1.527 1.525v74c0 .841-.686 1.525-1.527 1.525H423.521a1.527 1.527 0 0 1-1.525-1.525v-74c0-.841.684-1.525 1.525-1.525h120.917m0-1.526H423.521a3.051 3.051 0 0 0-3.051 3.052v74a3.051 3.051 0 0 0 3.051 3.052h120.916a3.052 3.052 0 0 0 3.053-3.052v-74a3.052 3.052 0 0 0-3.052-3.052z"/></g><path fill="#FFF" d="M473.872 160.647h20.216v12.969h-20.216zM449.46 173.616h68.659v3.433H449.46z"/><g fill="none" stroke="#FFF" stroke-miterlimit="10"><path d="M58.52 470.267a2.29 2.29 0 0 1-2.289-2.288v-74a2.292 2.292 0 0 1 2.289-2.288h120.917a2.29 2.29 0 0 1 2.288 2.288v74a2.289 2.289 0 0 1-2.288 2.288H58.52z"/><path d="M179.436 392.453c.841 0 1.526.685 1.526 1.525v74c0 .841-.686 1.525-1.526 1.525H58.52a1.527 1.527 0 0 1-1.525-1.525v-74c0-.841.684-1.525 1.525-1.525h120.916m0-1.526H58.52a3.051 3.051 0 0 0-3.051 3.052v74a3.052 3.052 0 0 0 3.051 3.052h120.917a3.051 3.051 0 0 0 3.052-3.052v-74a3.053 3.053 0 0 0-3.053-3.052z"/></g><path fill="#FFF" d="M108.87 471.03h20.215v12.969H108.87zM84.458 483.999h68.659v3.433H84.458z"/><g fill="none" stroke="#FFF" stroke-miterlimit="10"><path d="M417.414 563.339a2.29 2.29 0 0 1-2.288-2.288v-74a2.29 2.29 0 0 1 2.288-2.288h120.917a2.29 2.29 0 0 1 2.288 2.288v74a2.289 2.289 0 0 1-2.288 2.288H417.414z"/><path d="M538.331 485.525c.841 0 1.526.685 1.526 1.525v74c0 .841-.686 1.525-1.526 1.525H417.414a1.527 1.527 0 0 1-1.525-1.525v-74c0-.841.685-1.525 1.525-1.525h120.917m0-1.526H417.414a3.052 3.052 0 0 0-3.051 3.052v74a3.052 3.052 0 0 0 3.051 3.052h120.917a3.051 3.051 0 0 0 3.052-3.052v-74a3.051 3.051 0 0 0-3.052-3.052z"/></g><path fill="#FFF" d="M467.766 564.103h20.215v12.969h-20.215z"/><path fill="#FFF" d="M443.354 577.071h68.658v3.433h-68.658z"/><path fill="none" stroke="#FFF" stroke-width="3" stroke-miterlimit="10" stroke-dasharray="12,3.99,0.01,0,0,0" d="M378.357 253.042c11.578 5.291 34.862 12.496 59.07.147 24.068-12.278 31.12-34.739 33.185-47.015"/><path fill="#FFF" d="M377.266 259.002l-6.491-10.052 11.952-.595zM476.238 208.562l-4.802-10.959-7.091 9.638z"/><path fill="none" stroke="#FFF" stroke-width="3" stroke-miterlimit="10" stroke-dasharray="12,3.99,0.01,0,0,0" d="M208.597 306.19c-12.105-3.938-36.058-8.449-58.704 6.573-22.516 14.937-26.966 38.054-27.622 50.485"/><path fill="#FFF" d="M209.003 300.146l7.592 9.248-11.806 1.951zM116.412 361.518l6.018 10.341 5.948-10.382z"/><g><path fill="none" stroke="#FFF" stroke-width="3" stroke-miterlimit="10" stroke-dasharray="12,3.99,0.01,0,0,0" d="M152.883 165.262c-1.932 12.583-2.514 36.95 15.969 56.872 18.377 19.808 41.91 20.465 54.284 19.104"/><path fill="#FFF" d="M146.852 165.838l7.9-8.986 3.833 11.336zM222.375 247.301l9.233-7.61-11.208-4.192z"/></g><g><path fill="none" stroke="#FFF" stroke-width="3" stroke-miterlimit="10" stroke-dasharray="12,3.99,0.01,0,0,0" d="M463.652 455.876c1.175-15.733.922-49.781-19.434-73.127-23.933-27.448-53.563-31.148-67.914-31.13"/><path fill="#FFF" d="M469.666 454.728l-7.006 9.7-4.897-10.918zM377.755 345.682l-10.043 6.504 10.654 5.446z"/></g><g fill="#FFF"><path d="M82.548 431.692l11.137-5.736v1.656l-9.385 4.704v.049l9.385 4.703v1.656l-11.137-5.736v-1.296zM97.02 421.684h2.112v7.272h.048c.336-.6.864-1.151 1.512-1.512a4.33 4.33 0 0 1 2.16-.576c1.561 0 4.057.96 4.057 4.944v6.912h-2.112v-6.672c0-1.873-.696-3.433-2.688-3.433-1.368 0-2.424.96-2.833 2.089-.12.312-.144.623-.144 1.008v7.008H97.02v-17.04zM112.789 424.324v2.783h3.024v1.609h-3.024v6.264c0 1.44.408 2.256 1.584 2.256.576 0 .912-.047 1.224-.144l.096 1.608c-.408.145-1.056.288-1.872.288-.984 0-1.776-.336-2.28-.888-.576-.648-.816-1.681-.816-3.049v-6.336h-1.8v-1.609h1.8v-2.16l2.064-.622zM118.188 430.252c0-1.224-.048-2.184-.096-3.145h1.848l.096 1.896h.072c.648-1.104 1.728-2.136 3.672-2.136 1.56 0 2.76.96 3.264 2.328h.048c.36-.672.84-1.152 1.32-1.513.696-.527 1.44-.815 2.544-.815 1.56 0 3.84 1.008 3.84 5.04v6.816h-2.064v-6.553c0-2.256-.84-3.576-2.52-3.576-1.224 0-2.136.889-2.521 1.896a3.613 3.613 0 0 0-.168 1.057v7.176h-2.064v-6.96c0-1.849-.816-3.169-2.424-3.169-1.296 0-2.28 1.057-2.616 2.113-.12.287-.168.672-.168 1.031v6.984h-2.064v-8.47zM138.204 421.684h2.112v17.041h-2.112v-17.041zM154.837 433.013l-11.137 5.712v-1.656l9.457-4.703v-.049l-9.457-4.704v-1.656l11.137 5.688v1.368z"/><g><path d="M448.045 121.764l11.137-5.736v1.656l-9.385 4.704v.048l9.385 4.704v1.656l-11.137-5.736v-1.296zM462.516 111.755h2.113v7.272h.047c.337-.6.865-1.152 1.513-1.512a4.33 4.33 0 0 1 2.16-.576c1.561 0 4.057.96 4.057 4.944v6.913h-2.112v-6.672c0-1.873-.695-3.433-2.688-3.433-1.369 0-2.425.96-2.833 2.088-.12.312-.144.624-.144 1.008v7.009h-2.113v-17.041zM478.285 114.396v2.784h3.023v1.608h-3.023v6.265c0 1.44.408 2.256 1.584 2.256.576 0 .912-.048 1.224-.144l.097 1.608c-.408.144-1.057.288-1.873.288-.984 0-1.775-.336-2.279-.888-.576-.648-.816-1.68-.816-3.048v-6.336h-1.801v-1.608h1.801v-2.16l2.063-.625zM483.684 120.324a57.68 57.68 0 0 0-.096-3.145h1.849l.096 1.896h.072c.647-1.104 1.728-2.136 3.673-2.136 1.56 0 2.76.96 3.264 2.328h.048a4.595 4.595 0 0 1 1.32-1.512c.696-.528 1.44-.816 2.544-.816 1.561 0 3.841 1.008 3.841 5.041v6.816h-2.064v-6.553c0-2.256-.84-3.576-2.521-3.576-1.224 0-2.136.888-2.52 1.896a3.606 3.606 0 0 0-.168 1.056v7.177h-2.064v-6.96c0-1.848-.816-3.168-2.424-3.168-1.297 0-2.281 1.056-2.617 2.112-.119.288-.168.672-.168 1.032v6.984h-2.064v-8.472zM503.699 111.755h2.113v17.042h-2.113v-17.042zM520.333 123.084l-11.138 5.712v-1.656l9.457-4.704v-.048l-9.457-4.704v-1.656l11.138 5.688v1.368z"/></g><g><path d="M436.975 519.934h1.584v8.12c0 3.223-1.584 4.214-3.673 4.214-.595 0-1.296-.127-1.675-.289l.217-1.278a3.76 3.76 0 0 0 1.332.234c1.404 0 2.215-.63 2.215-3.007v-7.994zM447.235 529.98c0 .756.036 1.494.126 2.088h-1.422l-.127-1.098h-.053c-.486.684-1.424 1.297-2.666 1.297-1.764 0-2.664-1.243-2.664-2.504 0-2.105 1.873-3.258 5.239-3.24v-.18c0-.703-.198-2.018-1.98-1.999-.828 0-1.675.233-2.286.647l-.361-1.062c.721-.45 1.783-.757 2.881-.757 2.666 0 3.313 1.818 3.313 3.547v3.261zm-1.53-2.359c-1.729-.035-3.691.271-3.691 1.963 0 1.045.685 1.513 1.477 1.513 1.152 0 1.891-.72 2.143-1.458.055-.181.072-.361.072-.505v-1.513zM450.258 523.354l1.711 4.88c.287.81.521 1.529.701 2.25h.055c.197-.721.449-1.44.738-2.25l1.692-4.88h1.656l-3.421 8.714h-1.513l-3.313-8.714h1.694zM464.354 529.98c0 .756.035 1.494.125 2.088h-1.422l-.126-1.098h-.054c-.486.684-1.422 1.297-2.665 1.297-1.765 0-2.665-1.243-2.665-2.504 0-2.105 1.873-3.258 5.24-3.24v-.18c0-.703-.198-2.018-1.98-1.999-.828 0-1.675.233-2.287.647l-.36-1.062c.72-.45 1.782-.757 2.881-.757 2.665 0 3.313 1.818 3.313 3.547v3.261zm-1.532-2.359c-1.729-.035-3.69.271-3.69 1.963 0 1.045.685 1.513 1.476 1.513 1.152 0 1.891-.72 2.143-1.458.055-.181.072-.361.072-.505v-1.513zM466.764 530.16c.701.45 1.71.793 2.791.793 1.602 0 2.538-.847 2.538-2.071 0-1.116-.648-1.782-2.286-2.395-1.98-.72-3.205-1.765-3.205-3.457 0-1.891 1.566-3.295 3.925-3.295 1.224 0 2.143.288 2.665.594l-.433 1.278c-.378-.234-1.188-.576-2.286-.576-1.656 0-2.287.99-2.287 1.818 0 1.135.738 1.693 2.412 2.342 2.053.791 3.08 1.781 3.08 3.564 0 1.873-1.369 3.512-4.232 3.512-1.17 0-2.448-.361-3.096-.793l.414-1.314zM482.102 531.763c-.414.198-1.333.505-2.504.505-2.629 0-4.339-1.783-4.339-4.448 0-2.683 1.837-4.646 4.682-4.646.937 0 1.765.234 2.196.469l-.359 1.206c-.379-.198-.973-.414-1.837-.414-1.999 0-3.079 1.495-3.079 3.295 0 2.017 1.297 3.259 3.025 3.259.9 0 1.494-.216 1.944-.414l.271 1.188zM483.953 526.073c0-1.026-.018-1.909-.072-2.719h1.387l.072 1.729h.054c.396-1.171 1.368-1.909 2.431-1.909.162 0 .288.019.432.036v1.495c-.162-.037-.324-.037-.539-.037-1.117 0-1.909.829-2.125 2.018a4.734 4.734 0 0 0-.055.738v4.645h-1.584v-5.996zM491.676 520.905c0 .54-.379.973-1.008.973-.576 0-.955-.433-.955-.973s.396-.99.99-.99c.576 0 .973.433.973.99zm-1.765 11.163v-8.714h1.585v8.714h-1.585zM494.123 526.199c0-1.116-.036-2.017-.072-2.845h1.404l.09 1.494h.037c.629-1.063 1.674-1.675 3.096-1.675 2.125 0 3.709 1.783 3.709 4.412 0 3.133-1.926 4.682-3.979 4.682-1.152 0-2.16-.505-2.683-1.369h-.036v4.735h-1.566v-9.434zm1.566 2.322c0 .234.018.45.072.648.287 1.099 1.242 1.854 2.377 1.854 1.674 0 2.646-1.368 2.646-3.366 0-1.729-.918-3.224-2.593-3.224-1.081 0-2.106.757-2.396 1.944a2.622 2.622 0 0 0-.107.631v1.513zM506.273 521.266v2.089h2.269v1.206h-2.269v4.699c0 1.08.307 1.693 1.188 1.693.433 0 .686-.037.919-.108l.071 1.206a4.331 4.331 0 0 1-1.404.217c-.738 0-1.332-.253-1.71-.667-.433-.485-.612-1.261-.612-2.286v-4.754h-1.35v-1.206h1.35v-1.62l1.548-.469zM509.891 531.133c0-.648.449-1.135 1.08-1.135s1.063.469 1.063 1.135c0 .648-.432 1.135-1.099 1.135-.613 0-1.044-.487-1.044-1.135zM511.852 534.625c.738-.053 1.35-.252 1.729-.684.432-.486.611-1.17.611-3.259v-7.328h1.586v7.94c0 1.692-.271 2.791-1.045 3.583-.702.702-1.854.99-2.701.99l-.18-1.242zm4.105-13.72c0 .522-.36.973-1.009.973-.576 0-.954-.45-.954-.973 0-.54.396-.99.99-.99s.973.45.973.99zM518.152 530.467c.486.287 1.314.611 2.106.611 1.134 0 1.675-.558 1.675-1.296 0-.757-.451-1.152-1.604-1.585-1.584-.576-2.322-1.422-2.322-2.467 0-1.404 1.152-2.557 3.008-2.557.881 0 1.656.234 2.124.541l-.378 1.152a3.37 3.37 0 0 0-1.783-.522c-.936 0-1.439.54-1.439 1.188 0 .72.504 1.044 1.638 1.494 1.495.559 2.286 1.314 2.286 2.611 0 1.548-1.205 2.629-3.24 2.629-.954 0-1.836-.253-2.449-.613l.378-1.186z"/></g><g><path d="M111.775 75.055h1.584v8.121c0 3.223-1.584 4.213-3.673 4.213-.594 0-1.296-.126-1.674-.288l.216-1.279c.324.126.792.234 1.333.234 1.404 0 2.214-.63 2.214-3.007v-7.994zM122.037 85.103c0 .756.036 1.494.126 2.088h-1.423l-.126-1.098h-.054c-.486.684-1.423 1.296-2.665 1.296-1.765 0-2.665-1.243-2.665-2.503 0-2.106 1.873-3.259 5.239-3.241v-.18c0-.702-.198-2.017-1.98-1.999-.828 0-1.674.234-2.287.648l-.36-1.062c.72-.45 1.783-.756 2.881-.756 2.665 0 3.313 1.818 3.313 3.547v3.26zm-1.531-2.359c-1.729-.036-3.691.27-3.691 1.962 0 1.044.684 1.513 1.476 1.513 1.152 0 1.891-.72 2.143-1.458.054-.18.072-.36.072-.504v-1.513zM125.059 78.477l1.71 4.879c.288.81.522 1.53.702 2.25h.054c.198-.72.45-1.44.738-2.25l1.693-4.879h1.656l-3.421 8.714h-1.513l-3.313-8.714h1.694zM139.154 85.103c0 .756.036 1.494.126 2.088h-1.422l-.126-1.098h-.054c-.486.684-1.422 1.296-2.665 1.296-1.765 0-2.665-1.243-2.665-2.503 0-2.106 1.873-3.259 5.239-3.241v-.18c0-.702-.198-2.017-1.98-1.999-.828 0-1.674.234-2.287.648l-.36-1.062c.72-.45 1.783-.756 2.881-.756 2.665 0 3.313 1.818 3.313 3.547v3.26zm-1.53-2.359c-1.729-.036-3.691.27-3.691 1.962 0 1.044.684 1.513 1.476 1.513 1.152 0 1.891-.72 2.143-1.458.054-.18.072-.36.072-.504v-1.513zM141.564 85.282c.702.45 1.71.792 2.791.792 1.602 0 2.539-.846 2.539-2.071 0-1.116-.648-1.782-2.287-2.395-1.98-.72-3.205-1.765-3.205-3.457 0-1.891 1.566-3.295 3.925-3.295 1.224 0 2.143.288 2.665.594l-.432 1.279c-.378-.234-1.188-.576-2.287-.576-1.656 0-2.287.99-2.287 1.818 0 1.134.738 1.692 2.413 2.341 2.053.792 3.079 1.782 3.079 3.565 0 1.873-1.369 3.511-4.231 3.511-1.17 0-2.449-.36-3.097-.792l.414-1.314zM156.902 86.885c-.414.198-1.333.504-2.503.504-2.629 0-4.339-1.783-4.339-4.448 0-2.683 1.836-4.645 4.682-4.645.936 0 1.764.234 2.197.468l-.36 1.206c-.378-.198-.972-.414-1.836-.414-1.999 0-3.079 1.495-3.079 3.295 0 2.017 1.296 3.259 3.025 3.259.9 0 1.495-.216 1.945-.414l.268 1.189zM158.754 81.195c0-1.026-.018-1.909-.072-2.719h1.387l.072 1.729h.054c.396-1.17 1.368-1.909 2.431-1.909.162 0 .288.018.432.036v1.495c-.162-.036-.324-.036-.54-.036-1.116 0-1.909.829-2.125 2.017a4.739 4.739 0 0 0-.054.738v4.646h-1.584v-5.997zM166.477 76.027c0 .541-.378.973-1.008.973-.576 0-.955-.432-.955-.973 0-.54.396-.99.99-.99.577 0 .973.432.973.99zm-1.765 11.164v-8.714h1.584v8.714h-1.584zM168.924 81.321c0-1.116-.036-2.017-.072-2.845h1.405l.09 1.494h.036c.63-1.063 1.674-1.674 3.097-1.674 2.125 0 3.709 1.782 3.709 4.411 0 3.133-1.926 4.682-3.979 4.682-1.152 0-2.161-.504-2.683-1.369h-.036v4.735h-1.566v-9.434zm1.567 2.323c0 .234.018.45.072.648.288 1.099 1.243 1.854 2.377 1.854 1.674 0 2.647-1.368 2.647-3.367 0-1.729-.918-3.223-2.593-3.223-1.081 0-2.107.756-2.395 1.944a2.577 2.577 0 0 0-.108.63v1.514zM181.075 76.388v2.089h2.269v1.206h-2.269v4.699c0 1.081.306 1.693 1.188 1.693.432 0 .685-.036.918-.108l.072 1.206a4.318 4.318 0 0 1-1.404.216c-.738 0-1.332-.252-1.71-.667-.432-.486-.612-1.26-.612-2.287v-4.753h-1.35v-1.206h1.35v-1.621l1.548-.467zM184.691 86.255c0-.648.45-1.135 1.081-1.135s1.063.468 1.063 1.135c0 .648-.432 1.134-1.099 1.134-.612 0-1.045-.486-1.045-1.134zM186.653 89.748c.738-.054 1.35-.252 1.729-.684.432-.486.612-1.17.612-3.259v-7.328h1.585v7.94c0 1.693-.271 2.791-1.044 3.583-.702.702-1.854.99-2.701.99l-.181-1.242zm4.105-13.721c0 .522-.36.973-1.008.973-.576 0-.954-.45-.954-.973 0-.54.396-.99.99-.99s.972.45.972.99zM192.953 85.588c.486.288 1.314.612 2.107.612 1.134 0 1.674-.558 1.674-1.296 0-.756-.45-1.152-1.603-1.584-1.584-.576-2.323-1.422-2.323-2.467 0-1.404 1.152-2.557 3.007-2.557.882 0 1.656.234 2.125.54l-.378 1.152a3.375 3.375 0 0 0-1.782-.522c-.937 0-1.44.54-1.44 1.188 0 .72.504 1.044 1.638 1.495 1.495.558 2.287 1.314 2.287 2.611 0 1.548-1.206 2.629-3.241 2.629-.954 0-1.836-.252-2.449-.612l.378-1.189z"/></g><g opacity=".5"><path d="M294.049 316.814v3.385h5.784v4.992h-18.624v-8.377c0-.896.152-1.756.456-2.58a7.083 7.083 0 0 1 1.272-2.184 6.111 6.111 0 0 1 1.968-1.512 5.653 5.653 0 0 1 2.52-.564c.928 0 1.792.188 2.592.564.8.376 1.5.88 2.1 1.512.6.633 1.072 1.36 1.416 2.184.345.825.516 1.685.516 2.58zm-8.688.361v2.904h4.008v-2.904a2.138 2.138 0 0 0-1.217-1.944c-.238-.111-.501-.168-.787-.168s-.549.057-.787.168a2.1 2.1 0 0 0-1.062 1.129 2.141 2.141 0 0 0-.155.815zM299.833 296.416l-5.76 3.24v3.144l5.76-.023v5.136h-18.624v-9.336c0-.448.084-.904.252-1.368s.392-.912.672-1.344a8.19 8.19 0 0 1 .948-1.2c.352-.368.712-.68 1.08-.936a5.27 5.27 0 0 1 1.62-.732 6.704 6.704 0 0 1 1.764-.252 5.37 5.37 0 0 1 2.592.648 5.86 5.86 0 0 1 2.016 1.8l7.68-4.368v5.591zm-14.472 3.623v2.904h4.008v-2.904a2.146 2.146 0 0 0-.585-1.488 2.104 2.104 0 0 0-.632-.456c-.238-.112-.501-.168-.787-.168s-.549.056-.787.168a2.08 2.08 0 0 0-.632.456 2.13 2.13 0 0 0-.43.672 2.166 2.166 0 0 0-.155.816zM300.41 281.199a9.742 9.742 0 0 1-.768 3.864c-.512 1.2-1.212 2.248-2.1 3.144s-1.932 1.604-3.132 2.124c-1.2.52-2.48.78-3.84.78-1.359 0-2.64-.26-3.84-.78s-2.244-1.228-3.132-2.124a10.155 10.155 0 0 1-2.112-3.144 9.612 9.612 0 0 1-.78-3.864c0-1.359.26-2.644.78-3.852a10.134 10.134 0 0 1 2.112-3.156 9.906 9.906 0 0 1 3.132-2.124c1.2-.52 2.48-.78 3.84-.78 1.36 0 2.64.26 3.84.78a9.906 9.906 0 0 1 3.132 2.124 9.949 9.949 0 0 1 2.1 3.156 9.793 9.793 0 0 1 .768 3.852zm-14.952 0c0 .705.14 1.356.42 1.956.28.6.652 1.116 1.116 1.548a5.205 5.205 0 0 0 1.62 1.02 5.192 5.192 0 0 0 1.956.372c.672 0 1.32-.124 1.944-.372s1.168-.588 1.632-1.02a4.95 4.95 0 0 0 1.116-1.548c.28-.6.42-1.251.42-1.956 0-.704-.14-1.356-.42-1.956a4.95 4.95 0 0 0-1.116-1.548 5.188 5.188 0 0 0-1.632-1.02 5.217 5.217 0 0 0-1.944-.372c-.688 0-1.34.125-1.956.372a5.223 5.223 0 0 0-1.62 1.02 4.95 4.95 0 0 0-1.116 1.548 4.57 4.57 0 0 0-.42 1.956z"/></g></g></svg>		c-1.17,0-2.449-0.36-3.097-0.792L141.564,85.282z"/>
		<path fill="#FFFFFF" d="M156.902,86.885c-0.414,0.198-1.333,0.504-2.503,0.504c-2.629,0-4.339-1.783-4.339-4.448
			c0-2.683,1.836-4.645,4.682-4.645c0.936,0,1.764,0.234,2.197,0.468l-0.36,1.206c-0.378-0.198-0.972-0.414-1.836-0.414
			c-1.999,0-3.079,1.495-3.079,3.295c0,2.017,1.296,3.259,3.025,3.259c0.9,0,1.495-0.216,1.945-0.414L156.902,86.885z"/>
		<path fill="#FFFFFF" d="M158.754,81.195c0-1.026-0.018-1.909-0.072-2.719h1.387l0.072,1.729h0.054
			c0.396-1.17,1.368-1.909,2.431-1.909c0.162,0,0.288,0.018,0.432,0.036v1.495c-0.162-0.036-0.324-0.036-0.54-0.036
			c-1.116,0-1.909,0.829-2.125,2.017c-0.036,0.216-0.054,0.486-0.054,0.738v4.646h-1.584V81.195z"/>
		<path fill="#FFFFFF" d="M166.477,76.027c0,0.541-0.378,0.973-1.008,0.973c-0.576,0-0.955-0.432-0.955-0.973
			c0-0.54,0.396-0.99,0.99-0.99C166.081,75.037,166.477,75.469,166.477,76.027z M164.712,87.191v-8.714h1.584v8.714H164.712z"/>
		<path fill="#FFFFFF" d="M168.924,81.321c0-1.116-0.036-2.017-0.072-2.845h1.405l0.09,1.494h0.036
			c0.63-1.063,1.674-1.674,3.097-1.674c2.125,0,3.709,1.782,3.709,4.411c0,3.133-1.926,4.682-3.979,4.682
			c-1.152,0-2.161-0.504-2.683-1.369h-0.036v4.735h-1.566V81.321z M170.491,83.644c0,0.234,0.018,0.45,0.072,0.648
			c0.288,1.099,1.243,1.854,2.377,1.854c1.674,0,2.647-1.368,2.647-3.367c0-1.729-0.918-3.223-2.593-3.223
			c-1.081,0-2.107,0.756-2.395,1.944c-0.054,0.198-0.108,0.433-0.108,0.63V83.644z"/>
		<path fill="#FFFFFF" d="M181.075,76.388v2.089h2.269v1.206h-2.269v4.699c0,1.081,0.306,1.693,1.188,1.693
			c0.432,0,0.685-0.036,0.918-0.108l0.072,1.206c-0.306,0.108-0.792,0.216-1.404,0.216c-0.738,0-1.332-0.252-1.71-0.667
			c-0.432-0.486-0.612-1.26-0.612-2.287v-4.753h-1.35v-1.206h1.35v-1.621L181.075,76.388z"/>
		<path fill="#FFFFFF" d="M184.691,86.255c0-0.648,0.45-1.135,1.081-1.135s1.063,0.468,1.063,1.135c0,0.648-0.432,1.134-1.099,1.134
			C185.124,87.389,184.691,86.903,184.691,86.255z"/>
		<path fill="#FFFFFF" d="M186.653,89.748c0.738-0.054,1.35-0.252,1.729-0.684c0.432-0.486,0.612-1.17,0.612-3.259v-7.328h1.585
			v7.94c0,1.693-0.271,2.791-1.044,3.583c-0.702,0.702-1.854,0.99-2.701,0.99L186.653,89.748z M190.758,76.027
			c0,0.522-0.36,0.973-1.008,0.973c-0.576,0-0.954-0.45-0.954-0.973c0-0.54,0.396-0.99,0.99-0.99S190.758,75.487,190.758,76.027z"/>
		<path fill="#FFFFFF" d="M192.953,85.588c0.486,0.288,1.314,0.612,2.107,0.612c1.134,0,1.674-0.558,1.674-1.296
			c0-0.756-0.45-1.152-1.603-1.584c-1.584-0.576-2.323-1.422-2.323-2.467c0-1.404,1.152-2.557,3.007-2.557
			c0.882,0,1.656,0.234,2.125,0.54l-0.378,1.152c-0.342-0.216-0.972-0.522-1.782-0.522c-0.937,0-1.44,0.54-1.44,1.188
			c0,0.72,0.504,1.044,1.638,1.495c1.495,0.558,2.287,1.314,2.287,2.611c0,1.548-1.206,2.629-3.241,2.629
			c-0.954,0-1.836-0.252-2.449-0.612L192.953,85.588z"/>
	</g>
	<g opacity="0.5">
		<path fill="#FFFFFF" d="M294.049,316.814v3.385h5.784v4.992h-18.624v-8.377c0-0.896,0.152-1.756,0.456-2.58
			c0.304-0.823,0.728-1.551,1.272-2.184c0.544-0.632,1.2-1.136,1.968-1.512c0.768-0.376,1.608-0.564,2.52-0.564
			c0.928,0,1.792,0.188,2.592,0.564c0.8,0.376,1.5,0.88,2.1,1.512c0.6,0.633,1.072,1.36,1.416,2.184
			C293.878,315.059,294.049,315.919,294.049,316.814z M285.361,317.175v2.904h4.008v-2.904c0-0.288-0.051-0.56-0.155-0.815
			s-0.247-0.48-0.43-0.672c-0.183-0.192-0.394-0.344-0.632-0.457c-0.238-0.111-0.501-0.168-0.787-0.168s-0.549,0.057-0.787,0.168
			c-0.239,0.113-0.45,0.265-0.632,0.457c-0.183,0.191-0.326,0.416-0.43,0.672S285.361,316.887,285.361,317.175z"/>
		<path fill="#FFFFFF" d="M299.833,296.416l-5.76,3.24v3.144l5.76-0.023v5.136h-18.624v-9.336c0-0.448,0.084-0.904,0.252-1.368
			s0.392-0.912,0.672-1.344c0.28-0.432,0.597-0.832,0.948-1.2c0.352-0.368,0.712-0.68,1.08-0.936c0.464-0.32,1.004-0.564,1.62-0.732
			c0.616-0.168,1.204-0.252,1.764-0.252c0.928,0,1.792,0.216,2.592,0.648c0.8,0.432,1.472,1.032,2.016,1.8l7.68-4.368V296.416z
			 M285.361,300.039v2.904h4.008v-2.904c0-0.288-0.051-0.56-0.155-0.816c-0.104-0.255-0.247-0.48-0.43-0.672
			s-0.394-0.344-0.632-0.456c-0.238-0.112-0.501-0.168-0.787-0.168s-0.549,0.056-0.787,0.168c-0.239,0.112-0.45,0.264-0.632,0.456
			c-0.183,0.192-0.326,0.417-0.43,0.672C285.413,299.479,285.361,299.751,285.361,300.039z"/>
		<path fill="#FFFFFF" d="M300.41,281.199c0,1.376-0.256,2.664-0.768,3.864c-0.512,1.2-1.212,2.248-2.1,3.144
			s-1.932,1.604-3.132,2.124c-1.2,0.52-2.48,0.78-3.84,0.78c-1.359,0-2.64-0.26-3.84-0.78s-2.244-1.228-3.132-2.124
			c-0.888-0.896-1.592-1.944-2.112-3.144c-0.52-1.2-0.78-2.488-0.78-3.864c0-1.359,0.26-2.644,0.78-3.852
			c0.521-1.208,1.224-2.26,2.112-3.156c0.888-0.896,1.932-1.604,3.132-2.124c1.2-0.52,2.48-0.78,3.84-0.78
			c1.36,0,2.64,0.26,3.84,0.78c1.2,0.52,2.244,1.228,3.132,2.124c0.888,0.896,1.588,1.948,2.1,3.156
			C300.153,278.556,300.41,279.84,300.41,281.199z M285.458,281.199c0,0.705,0.14,1.356,0.42,1.956
			c0.28,0.6,0.652,1.116,1.116,1.548c0.464,0.432,1.004,0.772,1.62,1.02c0.616,0.248,1.269,0.372,1.956,0.372
			c0.672,0,1.32-0.124,1.944-0.372s1.168-0.588,1.632-1.02c0.464-0.432,0.836-0.948,1.116-1.548c0.28-0.6,0.42-1.251,0.42-1.956
			c0-0.704-0.14-1.356-0.42-1.956c-0.28-0.6-0.652-1.116-1.116-1.548c-0.464-0.432-1.008-0.771-1.632-1.02
			c-0.624-0.248-1.272-0.372-1.944-0.372c-0.688,0-1.34,0.125-1.956,0.372c-0.616,0.249-1.156,0.588-1.62,1.02
			c-0.464,0.432-0.836,0.948-1.116,1.548C285.598,279.843,285.458,280.496,285.458,281.199z"/>
	</g>
</g>
</svg>
