<svg xmlns="http://www.w3.org/2000/svg" width="1024" height="600" viewBox="0 0 1024 600"><path fill="#FFF" d="M1101.539 603.678L-39.316 609H-40v-35.677s46.49 22.109 104.313 22.109 84.01-23.618 165.643-23.618 136.124 25.17 302.791 25.17 241.013-27.5 323.326-27.5c82.313 0 110.208 17.027 166.671 17.027 67.199 0 75.748-13.808 77.748-23.942l1.047 41.109z"/></svg>"
	 width="1024px" height="600px" viewBox="0 0 1024 600" enable-background="new 0 0 1024 600" xml:space="preserve">
<path fill="#FFFFFF" d="M1101.539,603.678L-39.316,609H-40v-35.677c0,0,46.49,22.109,104.313,22.109s84.01-23.618,165.643-23.618
	s136.124,25.17,302.791,25.17s241.013-27.5,323.326-27.5c82.313,0,110.208,17.027,166.671,17.027
	c67.199,0,75.748-13.808,77.748-23.942L1101.539,603.678z"/>
</svg>
