<?xml version="1.0" encoding="utf-8"?>
<!-- Generator: Adobe Illustrator 15.1.0, SVG Export Plug-In . SVG Version: 6.00 Build 0)  -->
<!DOCTYPE svg PUBLIC "-//W3C//DTD SVG 1.0//EN" "http://www.w3.org/TR/2001/REC-SVG-20010904/DTD/svg10.dtd">
<svg version="1.0" id="Layer_1" xmlns="http://www.w3.org/2000/svg" xmlns:xlink="http://www.w3.org/1999/xlink" x="0px" y="0px"
	 width="928px" height="768px" viewBox="0 0 928 768" enable-background="new 0 0 928 768" xml:space="preserve">
<g>
	<g>
		<g>
			<path fill="#62C4EE" d="M896,648.583c-9.416-5.448-20.339-8.583-32-8.583V64H0v704h864c11.661,0,22.584-3.135,32-8.583
				c19.124-11.067,32-31.732,32-55.417S915.124,659.65,896,648.583z"/>
		</g>
		<g>
			<g>
				<g>
					<rect x="224" y="620" fill="#FFFFFF" width="480" height="8"/>
				</g>
				<g>
					<polygon fill="#FFFFFF" points="826,708 92,708 92,124 832,124 832,132 100,132 100,700 826,700 					"/>
				</g>
				<g>
					<rect x="256" y="652" fill="#FFFFFF" width="416" height="8"/>
				</g>
				<g>
					<rect x="96" y="204" fill="#FFFFFF" width="736" height="8"/>
				</g>
				<g>
					<rect x="96" y="236" fill="#FFFFFF" width="736" height="8"/>
				</g>
				<g>
					<rect x="700" y="208" fill="#FFFFFF" width="8" height="496"/>
				</g>
				<g>
					<rect x="96" y="396" fill="#FFFFFF" width="736" height="8"/>
				</g>
				<g>
					<polygon fill="#FFFFFF" points="739.578,353.789 732.422,350.211 747.528,320 732.422,289.789 739.578,286.211 756.472,320 
											"/>
				</g>
				<g>
					<polygon fill="#FFFFFF" points="188.422,353.789 171.528,320 188.422,286.211 195.578,289.789 180.472,320 195.578,350.211 
											"/>
				</g>
				<g>
					<rect x="252" y="208" fill="#FFFFFF" width="8" height="32"/>
				</g>
				<g>
					<rect x="316" y="208" fill="#FFFFFF" width="8" height="32"/>
				</g>
				<g>
					<rect x="380" y="208" fill="#FFFFFF" width="8" height="32"/>
				</g>
				<g>
					<rect x="508" y="208" fill="#FFFFFF" width="8" height="32"/>
				</g>
				<g>
					<rect x="604" y="208" fill="#FFFFFF" width="8" height="32"/>
				</g>
				<g>
					<rect x="224" y="588" fill="#FFFFFF" width="480" height="8"/>
				</g>
				<g>
					<rect x="220" y="208" fill="#FFFFFF" width="8" height="496"/>
				</g>
				<g>
					<rect x="272" y="220" fill="#FFFFFF" width="32" height="8"/>
				</g>
				<g>
					<rect x="336" y="220" fill="#FFFFFF" width="32" height="8"/>
				</g>
				<g>
					<rect x="400" y="220" fill="#FFFFFF" width="32" height="8"/>
				</g>
				<g>
					<rect x="656" y="220" fill="#FFFFFF" width="32" height="8"/>
				</g>
				<g>
					<rect x="636" y="208" fill="#FFFFFF" width="8" height="32"/>
				</g>
				<g>
					<rect x="256" y="320" fill="#FFFFFF" width="128" height="16"/>
				</g>
				<g>
					<rect x="256" y="364" fill="#FFFFFF" width="224" height="8"/>
				</g>
				<g>
					<rect x="256" y="668" fill="#FFFFFF" width="224" height="8"/>
				</g>
				<g>
					<rect x="256" y="348" fill="#FFFFFF" width="320" height="8"/>
				</g>
				<g>
					<path fill="#FFFFFF" d="M472,432v128H264V432H472L472,432z M480,424H256v144h224V424L480,424z"/>
				</g>
				<g>
					<rect x="512" y="492" fill="#FFFFFF" width="160" height="8"/>
				</g>
				<g>
					<rect x="512" y="508" fill="#FFFFFF" width="128" height="8"/>
				</g>
				<g>
					<rect x="512" y="476" fill="#FFFFFF" width="96" height="8"/>
				</g>
				<g>
					<rect x="256" y="152" fill="#FFFFFF" width="128" height="32"/>
				</g>
			</g>
			<g>
				<rect x="512" y="448" fill="#FFFFFF" width="64" height="16"/>
			</g>
			<g>
				<rect x="592" y="448" fill="#FFFFFF" width="80" height="16"/>
			</g>
		</g>
		<g opacity="0.4">
			<polygon fill="#242C3C" points="800,704 768,64 832,64 			"/>
		</g>
		<g opacity="0.1">
			<path fill="#242C3C" d="M896,648.583c-6.232-3.606-13.129-6.191-20.459-7.532L928,64H320l320,704h224
				c11.661,0,22.584-3.135,32-8.583c19.124-11.067,32-31.732,32-55.417S915.124,659.65,896,648.583z"/>
		</g>
		<g>
			<g>
				<path fill="#7CCEF1" d="M896,8.583C886.584,3.135,875.661,0,864,0c-35.347,0-64,28.654-64,64v640
					c0-0.981,0.03-1.956,0.074-2.927c0.011-0.247,0.023-0.495,0.037-0.742c0.054-0.934,0.12-1.863,0.212-2.786
					c0.004-0.035,0.006-0.072,0.01-0.107c0.097-0.945,0.221-1.882,0.357-2.814c0.038-0.256,0.077-0.511,0.118-0.766
					c0.135-0.846,0.282-1.688,0.45-2.521c0.019-0.096,0.034-0.192,0.054-0.288c0.184-0.89,0.392-1.771,0.611-2.646
					c0.07-0.28,0.143-0.56,0.217-0.838c0.194-0.733,0.4-1.462,0.62-2.186c0.059-0.192,0.113-0.387,0.174-0.579
					c0.251-0.797,0.521-1.584,0.801-2.367c0.113-0.316,0.23-0.631,0.349-0.945c0.227-0.603,0.463-1.2,0.707-1.794
					c0.143-0.346,0.285-0.691,0.433-1.034c0.279-0.646,0.568-1.285,0.868-1.92c0.17-0.359,0.344-0.717,0.521-1.072
					c0.229-0.465,0.467-0.924,0.707-1.382c0.278-0.53,0.564-1.055,0.856-1.576c0.257-0.455,0.515-0.909,0.781-1.358
					c0.242-0.406,0.49-0.809,0.74-1.21c0.204-0.325,0.412-0.647,0.621-0.969c0.476-0.731,0.966-1.45,1.469-2.159
					c0.173-0.244,0.343-0.489,0.52-0.729c0.325-0.445,0.658-0.884,0.994-1.32c0.156-0.203,0.316-0.403,0.475-0.604
					c0.731-0.925,1.484-1.83,2.264-2.713c0.024-0.027,0.048-0.055,0.072-0.083c0.417-0.47,0.843-0.931,1.272-1.389
					c0.097-0.103,0.195-0.204,0.293-0.307c1.345-1.411,2.752-2.761,4.221-4.045c0.039-0.034,0.079-0.068,0.118-0.103
					C833.255,645.937,847.93,640,864,640c11.661,0,22.584,3.135,32,8.583c19.124,11.067,32,31.732,32,55.417V64
					C928,40.314,915.124,19.65,896,8.583z"/>
			</g>
			<g>
				<path fill="none" d="M804.791,679.692c0.143-0.346,0.285-0.691,0.433-1.034C805.076,679.001,804.934,679.347,804.791,679.692z"
					/>
			</g>
			<g>
				<path fill="none" d="M803.735,682.432c0.114-0.316,0.23-0.632,0.349-0.945C803.966,681.801,803.849,682.115,803.735,682.432z"/>
			</g>
			<g>
				<path fill="none" d="M806.092,676.738c0.17-0.359,0.344-0.717,0.521-1.072C806.436,676.021,806.262,676.379,806.092,676.738z"/>
			</g>
			<g>
				<path fill="none" d="M807.319,674.284c0.279-0.529,0.563-1.055,0.856-1.576C807.884,673.229,807.598,673.754,807.319,674.284z"
					/>
			</g>
			<g>
				<path fill="none" d="M810.318,669.171c0.476-0.73,0.966-1.45,1.469-2.159C811.284,667.721,810.794,668.439,810.318,669.171z"/>
			</g>
			<g>
				<path fill="none" d="M808.957,671.35c0.242-0.406,0.49-0.809,0.74-1.21C809.447,670.541,809.199,670.943,808.957,671.35z"/>
			</g>
			<g>
				<path fill="none" d="M802.761,685.378c0.059-0.192,0.113-0.387,0.174-0.579C802.874,684.991,802.819,685.186,802.761,685.378z"
					/>
			</g>
			<g>
				<path fill="none" d="M801.259,691.336c0.019-0.096,0.034-0.192,0.054-0.288C801.293,691.144,801.277,691.24,801.259,691.336z"/>
			</g>
			<g>
				<path fill="none" d="M800.69,694.623c0.038-0.256,0.077-0.511,0.118-0.766C800.768,694.112,800.729,694.367,800.69,694.623z"/>
			</g>
			<g>
				<path fill="none" d="M801.924,688.401c0.07-0.28,0.143-0.56,0.217-0.838C802.066,687.842,801.994,688.121,801.924,688.401z"/>
			</g>
			<g>
				<path fill="none" d="M816.111,661.562c0.417-0.47,0.843-0.932,1.272-1.389C816.954,660.631,816.528,661.092,816.111,661.562z"/>
			</g>
			<g>
				<path fill="none" d="M800.074,701.073c0.011-0.247,0.023-0.495,0.037-0.742C800.098,700.578,800.085,700.826,800.074,701.073z"
					/>
			</g>
			<g>
				<path fill="none" d="M813.775,664.357c0.731-0.924,1.484-1.83,2.264-2.713C815.26,662.527,814.507,663.433,813.775,664.357z"/>
			</g>
			<g>
				<path fill="none" d="M821.897,655.821c-1.469,1.284-2.876,2.634-4.221,4.045C819.021,658.456,820.429,657.104,821.897,655.821z"
					/>
			</g>
			<g>
				<path fill="none" d="M812.307,666.282c0.325-0.445,0.657-0.885,0.994-1.32C812.965,665.398,812.632,665.837,812.307,666.282z"/>
			</g>
			<g>
				<path fill="none" d="M800.323,697.545c0.004-0.035,0.006-0.071,0.01-0.107C800.329,697.473,800.327,697.51,800.323,697.545z"/>
			</g>
			<g>
				<path fill="#B0E1F6" d="M896,119.417V64V8.583C886.584,3.135,875.661,0,864,0v64v64v512c11.661,0,22.584,3.135,32,8.583V119.417
					z"/>
			</g>
			<g>
				<path fill="#C9EAF8" d="M864,64V0c-35.347,0-64,28.654-64,64v640c0-0.981,0.03-1.956,0.074-2.927
					c0.011-0.247,0.023-0.495,0.037-0.742c0.054-0.934,0.12-1.863,0.212-2.786c0.004-0.035,0.006-0.072,0.01-0.107
					c0.097-0.945,0.221-1.882,0.357-2.814c0.038-0.256,0.077-0.511,0.118-0.766c0.135-0.846,0.282-1.688,0.45-2.521
					c0.019-0.096,0.034-0.192,0.054-0.288c0.184-0.89,0.392-1.771,0.611-2.646c0.07-0.28,0.143-0.56,0.217-0.838
					c0.194-0.733,0.4-1.462,0.62-2.186c0.059-0.192,0.113-0.387,0.174-0.579c0.251-0.797,0.521-1.584,0.801-2.367
					c0.113-0.316,0.23-0.631,0.349-0.945c0.227-0.603,0.463-1.2,0.707-1.794c0.143-0.346,0.285-0.691,0.433-1.034
					c0.279-0.646,0.568-1.285,0.868-1.92c0.17-0.359,0.344-0.717,0.521-1.072c0.229-0.465,0.467-0.924,0.707-1.382
					c0.278-0.53,0.564-1.055,0.856-1.576c0.257-0.455,0.515-0.909,0.781-1.358c0.242-0.406,0.49-0.809,0.74-1.21
					c0.204-0.325,0.412-0.647,0.621-0.969c0.476-0.731,0.966-1.45,1.469-2.159c0.173-0.244,0.343-0.489,0.52-0.729
					c0.325-0.445,0.658-0.884,0.994-1.32c0.156-0.203,0.316-0.403,0.475-0.604c0.731-0.925,1.484-1.83,2.264-2.713
					c0.024-0.027,0.048-0.055,0.072-0.083c0.417-0.47,0.843-0.931,1.272-1.389c0.097-0.103,0.195-0.204,0.293-0.307
					c1.345-1.411,2.752-2.761,4.221-4.045c0.039-0.034,0.079-0.068,0.118-0.103C833.255,645.937,847.93,640,864,640V128V64z"/>
			</g>
			<g>
				<path fill="#7CCEF1" d="M896,8.583V64v55.417v529.166c19.124,11.067,32,31.732,32,55.417V64C928,40.314,915.124,19.65,896,8.583
					z"/>
			</g>
			<g>
				<path fill="#5696B5" d="M817.677,659.866c-0.098,0.103-0.196,0.204-0.293,0.307c-0.43,0.457-0.855,0.919-1.272,1.389
					c-0.024,0.028-0.048,0.056-0.072,0.083c-0.779,0.883-1.532,1.789-2.264,2.713c-0.158,0.201-0.318,0.401-0.475,0.604
					c-0.337,0.436-0.669,0.875-0.994,1.32c-0.177,0.24-0.347,0.485-0.52,0.729c-0.503,0.709-0.993,1.429-1.469,2.159
					c-0.209,0.321-0.417,0.644-0.621,0.969c-0.25,0.401-0.498,0.804-0.74,1.21c-0.267,0.449-0.524,0.903-0.781,1.358
					c-0.293,0.521-0.577,1.047-0.856,1.576c-0.24,0.458-0.478,0.917-0.707,1.382c-0.177,0.355-0.351,0.713-0.521,1.072
					c-0.3,0.635-0.589,1.274-0.868,1.92c-0.147,0.343-0.29,0.688-0.433,1.034c-0.244,0.594-0.48,1.191-0.707,1.794
					c-0.118,0.313-0.234,0.629-0.349,0.945c-0.28,0.783-0.55,1.57-0.801,2.367c-0.061,0.192-0.115,0.387-0.174,0.579
					c-0.22,0.724-0.426,1.452-0.62,2.186c-0.074,0.278-0.146,0.558-0.217,0.838c-0.22,0.876-0.428,1.757-0.611,2.646
					c-0.02,0.096-0.035,0.192-0.054,0.288c-0.168,0.834-0.315,1.676-0.45,2.521c-0.041,0.255-0.08,0.51-0.118,0.766
					c-0.137,0.933-0.261,1.869-0.357,2.814c-0.004,0.036-0.006,0.072-0.01,0.107c-0.092,0.923-0.158,1.853-0.212,2.786
					c-0.014,0.247-0.026,0.495-0.037,0.742C800.03,702.044,800,703.019,800,704c0,23.688,12.868,44.37,31.996,55.437V704v-55.414
					c-3.558,2.059-6.897,4.451-9.98,7.133c-0.039,0.034-0.079,0.068-0.118,0.103C820.429,657.104,819.021,658.456,817.677,659.866z"
					/>
			</g>
		</g>
	</g>
</g>
</svg>
